<?xml version="1.0" encoding="iso-8859-1"?>
<!-- Generator: Adobe Illustrator 16.0.0, SVG Export Plug-In . SVG Version: 6.00 Build 0)  -->
<!DOCTYPE svg PUBLIC "-//W3C//DTD SVG 1.1//EN" "http://www.w3.org/Graphics/SVG/1.1/DTD/svg11.dtd">
<svg version="1.1" id="Capa_1" xmlns="http://www.w3.org/2000/svg" xmlns:xlink="http://www.w3.org/1999/xlink" x="0px" y="0px"
	 width="524.793px" height="524.793px" viewBox="0 0 524.793 524.793" style="enable-background:new 0 0 524.793 524.793;"
	 xml:space="preserve">
<g>
	<g>
		<g>
			<path d="M392.72,315.056l0.01-0.01L392.72,315.056c-0.056-7.972-0.438-16.345-1.941-24.848
				c-2.758-15.519-7.178-30.878-13.109-45.623c-3.075-7.652-4.947-15.838-6.366-22.843c-1.694-8.321-2.894-17.082-3.575-26.042
				c-0.266-3.334-0.513-7.738-0.256-12.2c0.177-2.987,0.121-5.694-0.164-8.279c-0.061-0.516-0.158-1.022-0.303-1.519
				c2.184-0.567,3.809-2.546,3.809-4.903v-6.461c0.971-0.936,1.559-2.252,1.559-3.666v-1.461c0-1.321-0.504-2.558-1.372-3.479
				c0.868-0.919,1.372-2.156,1.372-3.479v-1.463c0-1.414-0.588-2.728-1.559-3.666v-2.38c0-2.345-1.605-4.324-3.781-4.898
				c-1.438-1.122-6.108-2.835-28.058-2.835c-21.796,0-26.421,1.664-27.863,2.849c-2.133,0.597-3.71,2.562-3.71,4.884v1.902
				c-1.307,0.929-2.156,2.462-2.156,4.14v1.463c0,1.323,0.532,2.555,1.4,3.477c-0.868,0.919-1.4,2.151-1.4,3.481v1.461
				c0,1.683,0.85,3.207,2.156,4.14v5.983c0,2.156,1.363,4.004,3.267,4.73c-0.168,0.556-0.289,1.12-0.354,1.692
				c-0.279,2.585-0.341,5.292-0.154,8.279c0.252,4.462,0,8.858-0.256,12.2c-0.691,8.961-1.891,17.721-3.585,26.042
				c-1.419,7.005-3.29,15.196-6.365,22.843c-5.933,14.746-10.343,30.101-13.115,45.623c-1.811,10.268-2.016,20.377-1.955,29.762
				c0.028,2.992,0.074,6.035,0.126,8.976c0.061,2.543,0.103,5.176,0.131,7.757c0.056,6.449,0.187,13.506,0.42,22.215
				c0.224,8.984,0.7,17.884,1.4,26.472c0.522,6.403,0.998,12.919,1.446,19.219l0.238,3.122c0.098,1.358,0.196,2.712,0.299,4.075
				c0.364,4.951,0.746,10.071,1.026,15.103c0.317,5.53-0.682,10.921-1.736,16.624c-0.135,0.756-0.279,1.512-0.41,2.272
				c-1.092,6.002-2.151,13.115-1.849,20.33c0.112,2.674,0.141,5.418,0.168,8.069l0.01,0.845c0.074,6.501,0.131,13.012,0.187,19.518
				l0.065,6.646c0.019,2.478,0.042,4.947,0.061,7.425c0,0.435,0.047,0.821,0.094,1.134c0.027,0.229,0.046,0.443,0.046,0.565
				l-0.019,0.522l0.196,0.485c0.346,0.868,2.035,3.925,9.432,6.768c9.479,3.649,24.354,5.488,44.175,5.488
				c19.862,0,34.228-1.857,42.708-5.526c6.982-3.023,7.841-6.431,7.934-7.401l0.02-0.168l-0.01-0.168
				c0-0.122,0.028-0.336,0.047-0.565c0.047-0.312,0.103-0.704,0.103-1.134c0.01-2.478,0.028-4.947,0.056-7.425l0.057-6.646
				c0.056-6.506,0.121-13.017,0.187-19.518l0.009-0.845c0.028-2.651,0.057-5.396,0.178-8.069c0.299-7.215-0.756-14.328-1.848-20.33
				c-0.141-0.756-0.285-1.507-0.411-2.272c-1.069-5.698-2.059-11.089-1.745-16.624c0.279-5.031,0.662-10.151,1.026-15.103
				c0.103-1.354,0.205-2.717,0.304-4.075l0.233-3.122c0.457-6.3,0.919-12.82,1.456-19.219c0.699-8.588,1.166-17.487,1.399-26.472
				c0.225-8.709,0.355-15.774,0.411-22.215c0.028-2.581,0.089-5.214,0.121-7.757c0.065-2.94,0.117-5.983,0.136-8.976
				C392.744,318.355,392.725,316.699,392.72,315.056z M310.305,158.667v-1.456c1.255-0.187,2.165-1.258,2.165-2.506v-1.944
				c0-1.258-0.91-2.317-2.165-2.504v-1.458c1.255-0.187,2.165-1.258,2.165-2.504v-3.542c0.775,0,1.503-0.353,1.988-0.959
				c1.078-0.422,5.876-1.697,24.512-1.697c19.009,0,23.778,1.318,24.801,1.739c0.019,0.014,0.027,0.028,0.047,0.049
				c0.476,0.553,1.176,0.873,1.913,0.873v3.701c0,1.027,0.616,1.949,1.568,2.341l-0.01,1.463c-0.942,0.392-1.559,1.318-1.559,2.341
				v2.271c0,1.026,0.616,1.951,1.568,2.343l-0.01,1.461c-0.942,0.392-1.559,1.316-1.559,2.338v7.785h-53.256v-7.624
				C312.475,159.915,311.56,158.854,310.305,158.667z M304.653,246.478c3.229-8.035,5.171-16.503,6.637-23.732
				c1.727-8.527,2.968-17.497,3.673-26.667c0.262-3.489,0.527-8.116,0.252-12.881c-0.158-2.66-0.111-5.059,0.141-7.33h46.918
				c0.257,2.275,0.294,4.674,0.131,7.33c-0.28,4.765-0.01,9.393,0.261,12.881c0.7,9.17,1.933,18.141,3.664,26.667
				c1.475,7.229,3.407,15.698,6.637,23.732c5.806,14.431,10.118,29.435,12.815,44.617c1.521,8.555,1.853,17.044,1.881,25.113
				c-1.531,0.299-3.369,0.537-5.433,0.756c-2.128,0.196-4.518,0.196-7.042,0.099c-1.251-0.099-2.539-0.317-3.846-0.49
				c-1.284-0.378-2.614-0.546-3.911-1.008c-2.576-0.901-5.162-2.03-7.5-3.758c-1.177-0.854-2.403-1.647-3.431-2.79
				c-1.106-1.037-2.222-2.063-3.062-3.254c-0.924-1.194-1.867-2.076-2.847-3.789l-2.764-4.364l-3.117-4.923
				c-1.064-1.615-2.353-3.086-3.505-4.621c-1.12-1.563-2.567-2.86-3.851-4.242c-1.26-1.409-2.711-2.604-4.125-3.79
				c-1.368-1.223-2.848-2.282-4.317-3.267c-1.438-1.031-2.931-1.904-4.415-2.697c-2.931-1.652-5.908-2.819-8.672-3.692
				c-5.525-1.811-10.37-2.188-13.665-2.123c-3.309,0.056-5.129,0.556-5.147,0.56C299.151,261.263,301.712,253.791,304.653,246.478z
				 M387.531,328.842c-0.047,2.558-0.093,5.204-0.116,7.808c-0.061,6.413-0.196,13.446-0.425,22.137
				c-0.225,8.886-0.691,17.697-1.377,26.182c-0.522,6.432-0.999,12.956-1.461,19.275l-0.233,3.117
				c-0.093,1.358-0.196,2.707-0.299,4.07c-0.042,0.48-0.069,0.971-0.103,1.456c-0.541,0.112-1.11,0.238-1.773,0.364
				c-1.549,0.299-3.453,0.551-5.572,0.783c-2.138,0.196-4.527,0.196-7.038,0.099c-1.265-0.107-2.548-0.322-3.859-0.499
				c-1.27-0.374-2.614-0.542-3.897-1.009c-2.576-0.896-5.171-2.025-7.505-3.752c-1.176-0.85-2.398-1.643-3.435-2.791
				c-1.102-1.036-2.222-2.062-3.066-3.258c-0.919-1.19-1.867-2.072-2.847-3.785l-2.763-4.363l-3.104-4.929
				c-1.078-1.614-2.353-3.085-3.52-4.611c-1.11-1.567-2.566-2.87-3.846-4.251c-1.265-1.4-2.716-2.6-4.125-3.785
				c-1.373-1.223-2.848-2.287-4.322-3.267c-1.438-1.037-2.926-1.904-4.415-2.698c-2.922-1.652-5.895-2.814-8.662-3.696
				c-5.535-1.802-10.37-2.184-13.675-2.123c-3.322,0.061-5.152,0.564-5.152,0.564s1.83,0.43,4.816,1.521
				c2.978,1.087,7.07,2.898,11.51,5.601c1.101,0.7,2.258,1.372,3.359,2.245c1.12,0.821,2.315,1.596,3.417,2.58
				c1.129,0.925,2.314,1.825,3.397,2.922c1.11,1.055,2.282,2.062,3.323,3.276c2.202,2.254,4.256,4.821,6.244,7.477
				c0.942,1.372,1.941,2.712,2.87,4.126l2.651,4.359l3.146,4.816c0.812,1.465,2.455,3.159,3.817,4.723
				c0.729,0.766,1.382,1.629,2.165,2.287l2.371,1.904c1.494,1.334,3.249,2.352,4.994,3.275c3.435,1.942,7.196,2.955,10.692,3.491
				c1.755,0.243,3.486,0.22,5.115,0.28c1.643-0.168,3.211-0.294,4.681-0.522c2.936-0.519,5.503-1.345,7.668-2.259
				c2.175-0.883,3.948-1.896,5.358-2.764c0.326-0.205,0.56-0.382,0.849-0.578c-0.289,3.967-0.578,7.98-0.803,11.976
				c-0.331,6.142,0.757,12.088,1.82,17.833c0.141,0.746,0.285,1.498,0.416,2.245c1.092,6.024,2.053,12.517,1.759,19.214
				c-0.107,2.754-0.135,5.535-0.163,8.229l-0.014,0.85c-0.075,6.501-0.126,13.016-0.183,19.518l-0.069,6.604v0.042
				c-0.02,2.483-0.038,4.961-0.057,7.448c0,0.127-0.027,0.322-0.047,0.527c-0.041,0.257-0.079,0.542-0.098,0.864
				c-0.569,1.026-6.113,8.536-45.578,8.536c-38.947,0-47.408-7.397-48.738-8.929c-0.023-0.168-0.043-0.322-0.062-0.472
				c-0.027-0.205-0.046-0.4-0.046-0.527c-0.02-2.487-0.047-4.965-0.065-7.448l-0.07-6.646c-0.056-6.502-0.107-13.017-0.178-19.518
				l-0.019-0.85c-0.019-2.688-0.056-5.475-0.168-8.229c-0.289-6.697,0.687-13.193,1.765-19.214c0.14-0.742,0.275-1.499,0.41-2.245
				c1.069-5.745,2.166-11.691,1.825-17.833c-0.294-5.073-0.677-10.212-1.041-15.187c-0.098-1.363-0.205-2.712-0.299-4.074
				l-0.224-3.113C293,397.924,292.528,391.4,292,384.968c-0.69-8.479-1.152-17.296-1.382-26.182
				c-0.224-8.681-0.359-15.724-0.42-22.137c-0.019-2.604-0.074-5.25-0.116-7.808c-0.061-2.922-0.112-5.946-0.131-8.909
				c-0.056-9.147,0.131-18.972,1.89-28.838c1.331-7.477,3.062-14.921,5.162-22.271c0.019,0.01,1.849,0.43,4.808,1.512
				c2.978,1.093,7.07,2.903,11.519,5.605c1.096,0.695,2.258,1.372,3.355,2.24c1.12,0.826,2.305,1.601,3.411,2.581
				c1.134,0.929,2.319,1.829,3.397,2.926c1.106,1.051,2.287,2.067,3.318,3.272c2.213,2.259,4.262,4.825,6.25,7.477
				c0.947,1.377,1.945,2.716,2.874,4.135l2.642,4.35l3.155,4.826c0.812,1.465,2.46,3.154,3.817,4.723
				c0.729,0.756,1.382,1.624,2.166,2.277l2.361,1.914c1.503,1.325,3.248,2.343,5.003,3.271c3.426,1.937,7.196,2.959,10.697,3.495
				c1.755,0.243,3.481,0.215,5.115,0.271c1.634-0.158,3.201-0.289,4.676-0.518c2.94-0.518,5.498-1.34,7.669-2.264
				c1.759-0.7,3.183-1.493,4.434-2.23c0,0.41,0.009,0.835,0.009,1.246C387.643,322.896,387.583,325.92,387.531,328.842z"/>
			<path d="M340.389,524.785c-20,0-35.007-1.873-44.604-5.567c-7.618-2.929-9.609-6.179-10.112-7.44l-0.289-0.716l0.027-0.776
				c0-0.05-0.018-0.21-0.038-0.382c-0.041-0.271-0.102-0.74-0.102-1.275l-0.126-14.06c-0.056-6.506-0.112-13.016-0.187-19.516
				l-0.01-0.845c-0.027-2.646-0.056-5.378-0.167-8.033c-0.311-7.397,0.77-14.562,1.866-20.594c0.077-0.448,0.161-0.906,0.245-1.363
				l0.165-0.905c1.046-5.657,2.028-10.968,1.72-16.346c-0.266-4.768-0.624-9.629-0.97-14.33l-0.056-0.753
				c-0.103-1.363-0.201-2.718-0.299-4.077l-0.238-3.117c-0.411-5.774-0.903-12.568-1.445-19.213
				c-0.711-8.709-1.183-17.638-1.404-26.539c-0.229-8.575-0.363-15.641-0.42-22.233c-0.028-2.573-0.07-5.201-0.131-7.739
				c-0.052-2.951-0.098-5.997-0.126-8.992c-0.062-9.417,0.136-19.564,1.973-29.98c2.791-15.625,7.227-31.055,13.184-45.862
				c3.051-7.585,4.897-15.698,6.303-22.634c1.674-8.221,2.873-16.933,3.564-25.897c0.25-3.269,0.506-7.592,0.255-12.041
				c-0.187-2.982-0.135-5.757,0.159-8.475c0.034-0.304,0.084-0.61,0.146-0.917c-1.868-1.116-3.065-3.163-3.065-5.376v-5.408
				c-1.36-1.193-2.156-2.913-2.156-4.715v-1.461c0-1.247,0.374-2.452,1.069-3.482c-0.695-1.031-1.069-2.234-1.069-3.477v-1.463
				c0-1.806,0.796-3.527,2.156-4.717v-1.325c0-2.716,1.776-5.135,4.349-5.964c1.936-1.414,7.207-2.964,28.419-2.964
				c21.441,0,26.715,1.635,28.592,2.939c2.627,0.801,4.441,3.23,4.441,5.989v1.904c0.996,1.142,1.559,2.624,1.559,4.142v1.463
				c0,1.257-0.365,2.461-1.045,3.48c0.68,1.02,1.045,2.224,1.045,3.479v1.461c0,1.521-0.562,3.003-1.559,4.142v5.985
				c0,2.454-1.436,4.644-3.604,5.663c0.035,0.204,0.065,0.411,0.09,0.62c0.295,2.673,0.351,5.447,0.17,8.489
				c-0.265,4.601,0.019,9.072,0.255,12.034c0.68,8.941,1.876,17.654,3.555,25.899c1.403,6.93,3.25,15.037,6.304,22.636
				c5.976,14.854,10.409,30.284,13.178,45.859c1.646,9.318,1.912,18.281,1.959,25.048c0.004,1.309,0.017,2.62,0.029,3.908
				l0.009,0.994c-0.017,2.706-0.061,5.648-0.136,9.013c-0.015,1.161-0.035,2.353-0.057,3.549c-0.024,1.398-0.049,2.804-0.064,4.194
				c-0.056,6.443-0.187,13.509-0.411,22.233c-0.235,9.068-0.708,17.997-1.403,26.537c-0.474,5.653-0.892,11.426-1.296,17.009
				l-0.393,5.324c-0.099,1.357-0.201,2.722-0.304,4.076l-0.064,0.873c-0.343,4.661-0.698,9.481-0.96,14.206
				c-0.311,5.482,0.725,11.001,1.726,16.337c0.106,0.642,0.22,1.247,0.333,1.854l0.079,0.421c1.096,6.025,2.174,13.18,1.866,20.599
				c-0.119,2.63-0.147,5.334-0.176,7.949l-0.01,0.928c-0.065,6.5-0.131,13.01-0.187,19.515l-0.057,6.646
				c-0.027,2.479-0.046,4.945-0.056,7.42c0,0.492-0.06,0.933-0.115,1.306l-0.016,0.186c-0.008,0.083-0.017,0.155-0.019,0.21
				l0.015,0.195l-0.032,0.271c-0.137,1.431-1.258,5.161-8.646,8.36C374.945,522.893,360.417,524.785,340.389,524.785z
				 M287.79,510.636l0.101,0.25c0.217,0.545,1.646,3.369,8.753,6.101c9.322,3.589,24.041,5.409,43.746,5.409
				c19.698,0,33.908-1.827,42.233-5.429c6.559-2.84,7.164-5.845,7.219-6.418l0.01-0.089l-0.003-0.064
				c-0.002-0.175,0.01-0.33,0.027-0.509l0.021-0.223c0.054-0.382,0.099-0.704,0.099-1.037c0.01-2.485,0.028-4.958,0.056-7.438
				l0.057-6.643c0.056-6.507,0.121-13.019,0.187-19.52l0.009-0.846c0.028-2.719,0.058-5.444,0.179-8.11
				c0.297-7.181-0.758-14.172-1.83-20.062l-0.077-0.414c-0.116-0.623-0.233-1.246-0.337-1.878
				c-1.023-5.451-2.086-11.114-1.759-16.886c0.263-4.745,0.619-9.575,0.963-14.247l0.064-0.876c0.103-1.354,0.205-2.717,0.304-4.074
				l0.393-5.321c0.404-5.59,0.822-11.369,1.298-17.032c0.691-8.494,1.161-17.378,1.396-26.403c0.225-8.71,0.355-15.763,0.411-22.194
				c0.015-1.398,0.04-2.809,0.064-4.213c0.021-1.192,0.041-2.38,0.057-3.549c0.074-3.362,0.119-6.292,0.136-8.968l-0.01-0.975
				c-0.013-1.293-0.024-2.61-0.028-3.918c-0.047-6.669-0.308-15.502-1.924-24.644c-2.739-15.412-7.127-30.683-13.041-45.385
				c-3.126-7.778-5.004-16.018-6.429-23.052c-1.698-8.341-2.908-17.153-3.596-26.189c-0.241-3.028-0.53-7.609-0.257-12.359
				c0.172-2.908,0.12-5.55-0.159-8.08c-0.055-0.464-0.141-0.898-0.263-1.316l-0.343-1.181l1.19-0.309
				c1.715-0.446,2.914-1.986,2.914-3.747v-6.969l0.365-0.353c0.758-0.73,1.193-1.753,1.193-2.806v-1.461
				c0-0.999-0.372-1.943-1.048-2.661l-0.772-0.82l0.774-0.819c0.674-0.714,1.046-1.658,1.046-2.659v-1.463
				c0-1.05-0.436-2.073-1.194-2.807l-0.364-0.352v-2.887c0-1.755-1.189-3.294-2.892-3.743l-0.237-0.062l-0.193-0.151
				c-1.509-1.178-7.474-2.582-27.322-2.582c-19.81,0-25.674,1.401-27.104,2.578l-0.194,0.159l-0.242,0.068
				c-1.671,0.468-2.838,2.003-2.838,3.734v2.519l-0.502,0.357c-1.036,0.736-1.654,1.92-1.654,3.166v1.463
				c0,0.978,0.383,1.921,1.076,2.658l0.772,0.82l-0.773,0.819c-0.693,0.733-1.075,1.679-1.075,2.661v1.461
				c0,1.243,0.619,2.427,1.656,3.167l0.5,0.357v6.598c0,1.592,1.004,3.044,2.498,3.614l1.04,0.396l-0.322,1.065
				c-0.151,0.5-0.256,0.999-0.311,1.482c-0.278,2.575-0.327,5.216-0.149,8.069c0.26,4.597-0.001,9.022-0.257,12.366
				c-0.699,9.062-1.912,17.874-3.605,26.189c-1.426,7.041-3.306,15.287-6.428,23.05c-5.896,14.656-10.286,29.926-13.048,45.387
				c-1.803,10.227-1.996,20.243-1.937,29.544c0.028,2.985,0.074,6.025,0.126,8.963c0.061,2.54,0.103,5.178,0.131,7.765
				c0.058,6.581,0.19,13.633,0.42,22.195c0.057,2.286,0.131,4.573,0.221,6.858l2.646-0.729c-0.078-2.053-0.144-4.116-0.197-6.187
				c-0.228-8.824-0.361-15.864-0.42-22.156c-0.015-1.953-0.049-3.927-0.083-5.869l-0.033-1.931
				c-0.061-2.922-0.112-5.952-0.131-8.921c-0.057-9.217,0.136-19.115,1.908-29.056c1.323-7.436,3.069-14.969,5.189-22.39
				l0.403-1.413l0.008,0.004c2.05-7.058,4.495-14.133,7.278-21.054c3.209-7.983,5.124-16.372,6.574-23.524
				c1.726-8.523,2.955-17.447,3.652-26.522c0.26-3.454,0.522-8.023,0.251-12.721c-0.162-2.722-0.114-5.186,0.146-7.53l0.118-1.063
				h49.055l0.12,1.061c0.261,2.312,0.306,4.778,0.136,7.537c-0.277,4.722-0.007,9.276,0.26,12.716
				c0.696,9.122,1.922,18.045,3.644,26.522c1.468,7.196,3.396,15.619,6.574,23.524c5.84,14.516,10.175,29.607,12.884,44.854
				c1.637,9.204,1.874,18.365,1.898,25.318l0.002,0.396l0.008-0.005l0.009,3.337c-0.028,2.278-0.07,4.578-0.111,6.84l-0.038,2.091
				c-0.047,2.555-0.093,5.197-0.116,7.797c-0.06,6.374-0.195,13.414-0.425,22.157c-0.224,8.847-0.688,17.678-1.381,26.247
				c-0.519,6.386-0.992,12.872-1.451,19.146l-0.242,3.239c-0.078,1.147-0.165,2.295-0.252,3.45l-0.047,0.621
				c-0.022,0.253-0.04,0.501-0.056,0.747l0.002-0.001l-0.02,0.27c0,0.003-0.001,0.006-0.001,0.009l-0.159,2.184
				c-0.31,4.248-0.583,8.081-0.801,11.956c-0.326,6.05,0.756,11.896,1.802,17.548l0.076,0.404c0.117,0.616,0.234,1.236,0.342,1.853
				c1.1,6.064,2.076,12.627,1.775,19.473c-0.104,2.668-0.132,5.381-0.16,8.004l-0.016,1.041c-0.061,5.223-0.104,10.461-0.149,15.693
				l-0.159,17.907c0,0.112-0.015,0.278-0.034,0.463l-0.018,0.169c-0.045,0.296-0.078,0.542-0.095,0.819l-0.016,0.272l-0.132,0.239
				c-0.848,1.527-7.08,9.15-46.623,9.15c-38.532,0-47.737-7.148-49.641-9.34l-0.232-0.268l-0.112-0.84
				c-0.034-0.256-0.055-0.51-0.055-0.675l-0.166-17.567c-0.045-5.344-0.09-10.691-0.147-16.031l-0.019-0.836
				c-0.018-2.454-0.05-5.332-0.167-8.206c-0.291-6.741,0.685-13.344,1.782-19.474c0.122-0.652,0.24-1.306,0.357-1.954l0.053-0.292
				c1.055-5.665,2.144-11.516,1.808-17.555c-0.271-4.694-0.621-9.467-0.96-14.082l-0.207-2.813c-0.059-0.782-0.117-1.563-0.172-2.35
				l-0.329-4.563c-0.427-5.838-0.867-11.876-1.354-17.81c-0.482-5.923-0.855-12.034-1.115-18.252l-2.702-0.638
				c0.258,6.422,0.646,12.821,1.158,19.106c0.543,6.655,1.037,13.456,1.447,19.23l0.238,3.116c0.098,1.362,0.196,2.715,0.299,4.076
				l0.056,0.756c0.347,4.711,0.705,9.583,0.973,14.37c0.324,5.663-0.683,11.112-1.75,16.881l-0.17,0.937
				c-0.082,0.448-0.165,0.897-0.242,1.348c-1.076,5.914-2.133,12.915-1.833,20.078c0.113,2.692,0.142,5.444,0.169,8.106l0.01,0.844
				c0.074,6.502,0.131,13.014,0.187,19.521l0.126,14.073c0,0.381,0.044,0.715,0.081,0.966c0.039,0.322,0.059,0.59,0.059,0.742
				L287.79,510.636z M292.766,509.056c1.628,1.562,10.772,8.276,47.604,8.276c36.791,0,43.487-6.531,44.411-7.74
				c0.022-0.235,0.053-0.453,0.085-0.654l0.011-0.125c0.01-0.084,0.02-0.159,0.021-0.218l0.158-17.915
				c0.045-5.235,0.09-10.475,0.15-15.706l0.016-1.032c0.027-2.641,0.056-5.37,0.162-8.079c0.29-6.615-0.665-13.019-1.741-18.954
				c-0.107-0.612-0.223-1.222-0.337-1.828l-0.077-0.408c-1.022-5.524-2.182-11.781-1.84-18.119c0.178-3.162,0.393-6.289,0.633-9.632
				c-1.193,0.692-2.657,1.464-4.395,2.17c-2.511,1.06-5.177,1.846-7.909,2.328c-1.181,0.184-2.365,0.299-3.62,0.421l-1.229,0.122
				l-0.083-0.003c-0.395-0.015-0.795-0.024-1.201-0.034c-1.299-0.031-2.643-0.064-4.034-0.257c-4.275-0.655-8.01-1.878-11.116-3.635
				c-1.729-0.915-3.579-1.976-5.202-3.424l-2.323-1.864c-0.605-0.508-1.104-1.075-1.586-1.623c-0.229-0.261-0.458-0.521-0.696-0.772
				c-0.315-0.359-0.607-0.687-0.901-1.015c-1.174-1.315-2.388-2.675-3.096-3.952l-3.101-4.742l-2.672-4.392
				c-0.534-0.812-1.116-1.632-1.695-2.448c-0.384-0.54-0.766-1.079-1.14-1.622c-2.346-3.132-4.24-5.4-6.113-7.318
				c-0.798-0.927-1.648-1.715-2.471-2.478c-0.275-0.256-0.55-0.51-0.821-0.768c-0.845-0.855-1.757-1.591-2.639-2.302l-0.692-0.562
				c-0.798-0.711-1.635-1.305-2.444-1.879c-0.311-0.221-0.619-0.439-0.922-0.661c-0.851-0.673-1.729-1.221-2.577-1.75l-0.718-0.451
				c-4.643-2.825-8.697-4.544-11.278-5.486c-1.334-0.487-2.436-0.841-3.234-1.08c0.257,5.935,0.618,11.769,1.078,17.428
				c0.487,5.943,0.929,11.986,1.355,17.83l0.33,4.569c0.055,0.785,0.112,1.562,0.171,2.339l0.207,2.817
				c0.34,4.625,0.69,9.406,0.963,14.121c0.352,6.33-0.764,12.324-1.843,18.121l-0.052,0.286c-0.118,0.653-0.237,1.312-0.359,1.961
				c-1.071,5.984-2.026,12.43-1.745,18.941c0.119,2.912,0.152,5.815,0.169,8.272l0.019,0.831c0.059,5.354,0.104,10.705,0.148,16.05
				l0.165,17.578c0,0.099,0.017,0.235,0.036,0.379L292.766,509.056z M296.773,366.504c2.688,1.019,6.635,2.751,11.115,5.478
				l0.72,0.452c0.905,0.564,1.841,1.147,2.761,1.877c0.258,0.188,0.556,0.399,0.856,0.612c0.863,0.613,1.756,1.246,2.614,2.014
				l0.64,0.517c0.934,0.753,1.899,1.532,2.812,2.456c0.236,0.225,0.504,0.473,0.772,0.722c0.871,0.808,1.772,1.644,2.607,2.617
				c1.896,1.938,3.854,4.28,6.293,7.538c0.396,0.573,0.771,1.102,1.146,1.632c0.596,0.84,1.194,1.683,1.767,2.554l2.673,4.395
				l3.125,4.784c0.623,1.118,1.747,2.376,2.833,3.593c0.301,0.336,0.6,0.67,0.885,0.998c0.225,0.234,0.476,0.519,0.726,0.803
				c0.442,0.504,0.861,0.979,1.308,1.354l2.351,1.888c1.479,1.319,3.181,2.291,4.805,3.151c2.884,1.63,6.344,2.757,10.314,3.366
				c1.24,0.172,2.515,0.202,3.747,0.232c0.389,0.009,0.771,0.019,1.15,0.031l1.074-0.106c1.22-0.118,2.372-0.23,3.46-0.399
				c2.532-0.447,5.025-1.182,7.387-2.179c1.894-0.769,3.444-1.625,4.647-2.347c-1.333,0.235-2.963,0.456-5.061,0.686
				c-1.25,0.115-2.592,0.17-4.124,0.17c-1.003,0-2.036-0.023-3.091-0.065c-0.99-0.082-1.941-0.22-2.86-0.352
				c-0.368-0.053-0.739-0.106-1.111-0.157l-0.179-0.037c-0.502-0.148-1.018-0.262-1.535-0.376c-0.791-0.176-1.61-0.357-2.433-0.656
				c-2.028-0.705-5.062-1.885-7.808-3.914l-0.532-0.381c-1.04-0.739-2.115-1.504-3.078-2.57l-0.129-0.115
				c-1.063-0.999-2.162-2.031-3.026-3.254c-0.236-0.305-0.506-0.622-0.776-0.942c-0.686-0.811-1.394-1.648-2.132-2.939l-5.84-9.248
				c-0.679-1.016-1.488-2.03-2.271-3.012c-0.4-0.502-0.8-1.003-1.188-1.511c-0.753-1.062-1.685-2.012-2.584-2.93
				c-0.403-0.41-0.804-0.819-1.188-1.235c-1.148-1.271-2.484-2.394-3.776-3.479l-0.242-0.203c-1.175-1.046-2.506-2.051-4.214-3.186
				c-1.241-0.895-2.601-1.725-4.316-2.639c-2.505-1.417-5.265-2.594-8.462-3.612C304.159,366.87,299.645,366.507,296.773,366.504z
				 M365.522,412.462c0.351,0.048,0.698,0.098,1.045,0.147c0.926,0.134,1.801,0.26,2.668,0.333c0.968,0.036,1.97,0.06,2.942,0.06
				c1.459,0,2.729-0.052,3.885-0.157c2.338-0.257,4.078-0.501,5.455-0.767c0.309-0.059,0.596-0.117,0.867-0.174
				c0.014-0.193,0.028-0.387,0.045-0.578l0.046-0.606c0.087-1.15,0.173-2.292,0.251-3.44l0.243-3.244
				c0.459-6.277,0.934-12.769,1.453-19.164c0.688-8.524,1.15-17.311,1.373-26.115c0.229-8.73,0.364-15.759,0.425-22.118
				c0.023-2.606,0.069-5.257,0.116-7.817l0.038-2.091c0.036-1.987,0.072-4.004,0.101-5.999c-0.839,0.443-1.758,0.884-2.796,1.297
				c-2.487,1.059-5.155,1.847-7.903,2.33c-1.29,0.2-2.59,0.323-3.967,0.453l-0.879,0.084l-0.078-0.002
				c-0.389-0.014-0.782-0.021-1.182-0.03c-1.306-0.028-2.656-0.057-4.057-0.251c-4.269-0.653-8.005-1.877-11.121-3.639
				c-1.632-0.863-3.552-1.958-5.205-3.415l-2.323-1.883c-0.591-0.491-1.083-1.049-1.559-1.588c-0.235-0.267-0.471-0.534-0.716-0.788
				c-0.342-0.393-0.655-0.744-0.97-1.098c-1.148-1.288-2.336-2.62-3.032-3.875l-3.11-4.752l-2.663-4.383
				c-0.544-0.831-1.137-1.666-1.728-2.498c-0.373-0.525-0.745-1.05-1.109-1.58c-1.582-2.108-3.737-4.886-6.119-7.317
				c-0.794-0.923-1.646-1.714-2.472-2.479c-0.274-0.254-0.547-0.508-0.816-0.763c-0.845-0.858-1.76-1.597-2.644-2.311l-0.688-0.558
				c-0.794-0.702-1.622-1.293-2.423-1.864c-0.316-0.227-0.631-0.451-0.94-0.679c-0.852-0.673-1.738-1.226-2.595-1.76l-0.692-0.434
				c-4.635-2.815-8.699-4.542-11.29-5.492c-1.242-0.455-2.474-0.859-3.567-1.173c-1.953,6.976-3.571,14.041-4.813,21.02
				c-1.738,9.752-1.927,19.519-1.872,28.622c0.019,2.956,0.07,5.975,0.131,8.892l0.033,1.933c0.034,1.951,0.069,3.933,0.083,5.891
				c0.06,6.276,0.193,13.305,0.42,22.115c0.05,1.907,0.109,3.807,0.18,5.699c0.925-0.146,2.301-0.302,4.079-0.334
				c0.218-0.004,0.442-0.006,0.674-0.006c3.044,0,7.838,0.379,13.393,2.188c3.349,1.066,6.256,2.308,8.88,3.792
				c1.787,0.952,3.233,1.837,4.526,2.77c1.766,1.172,3.182,2.242,4.418,3.343l0.215,0.181c1.354,1.138,2.754,2.314,4.002,3.696
				c0.359,0.388,0.745,0.78,1.132,1.175c0.966,0.985,1.964,2.004,2.802,3.187c0.353,0.459,0.742,0.948,1.133,1.438
				c0.812,1.02,1.653,2.074,2.405,3.2l5.883,9.317c0.657,1.146,1.266,1.866,1.909,2.628c0.294,0.348,0.585,0.692,0.873,1.065
				c0.755,1.066,1.72,1.973,2.741,2.932l0.198,0.187c0.855,0.942,1.779,1.599,2.757,2.293l0.56,0.399
				c1.899,1.405,4.183,2.545,7.197,3.592c0.691,0.252,1.399,0.409,2.149,0.575C364.458,412.191,364.997,412.311,365.522,412.462z
				 M302.833,269.442c2.697,1.026,6.648,2.764,11.116,5.478l0.695,0.437c0.913,0.568,1.856,1.157,2.781,1.888
				c0.268,0.197,0.572,0.414,0.878,0.633c0.852,0.607,1.731,1.236,2.584,1.991l0.639,0.517c0.938,0.756,1.906,1.538,2.818,2.466
				c0.233,0.22,0.499,0.467,0.767,0.715c0.874,0.812,1.779,1.65,2.608,2.618c2.425,2.473,4.643,5.33,6.298,7.537
				c0.387,0.561,0.752,1.075,1.118,1.591c0.607,0.856,1.217,1.716,1.8,2.606l2.663,4.384l3.134,4.792
				c0.611,1.097,1.709,2.328,2.771,3.519c0.323,0.362,0.644,0.723,0.95,1.076c0.226,0.231,0.484,0.525,0.743,0.818
				c0.436,0.493,0.847,0.959,1.284,1.323l2.349,1.904c1.504,1.324,3.273,2.33,4.81,3.144c2.893,1.634,6.354,2.763,10.319,3.37
				c1.246,0.172,2.526,0.199,3.764,0.227c0.382,0.008,0.761,0.016,1.134,0.028l0.729-0.07c1.34-0.126,2.605-0.246,3.802-0.432
				c2.545-0.448,5.037-1.184,7.384-2.183c1.709-0.681,3.072-1.439,4.295-2.16l0.304-0.179c-1.319,0.236-2.932,0.453-5.014,0.674
				c-1.24,0.114-2.58,0.169-4.114,0.169c-1.004,0-2.04-0.023-3.1-0.064c-0.965-0.075-1.902-0.21-2.81-0.34
				c-0.38-0.055-0.763-0.109-1.146-0.16l-0.181-0.038c-0.517-0.152-1.041-0.268-1.566-0.385c-0.781-0.173-1.59-0.353-2.408-0.644
				c-2.036-0.713-5.067-1.896-7.81-3.923l-0.56-0.4c-1.021-0.727-2.074-1.479-3.015-2.513l-0.105-0.1
				c-1.084-1.015-2.205-2.064-3.079-3.304c-0.233-0.301-0.501-0.616-0.77-0.935c-0.687-0.813-1.396-1.654-2.138-2.95l-5.854-9.24
				c-0.645-0.979-1.418-1.952-2.165-2.895c-0.436-0.548-0.869-1.094-1.285-1.649c-0.751-1.047-1.639-1.951-2.579-2.909
				c-0.403-0.41-0.805-0.82-1.192-1.236c-1.149-1.286-2.49-2.409-3.787-3.495l-0.229-0.192c-1.458-1.303-3.017-2.388-4.215-3.189
				c-1.249-0.896-2.609-1.727-4.312-2.637c-2.538-1.431-5.301-2.605-8.47-3.606C310.214,269.796,305.711,269.437,302.833,269.442z
				 M371.588,315.4c0.362,0.049,0.724,0.101,1.082,0.152c0.91,0.13,1.77,0.253,2.61,0.319c0.98,0.037,1.986,0.061,2.96,0.061
				c1.46,0,2.729-0.052,3.879-0.157c1.761-0.188,3.172-0.37,4.342-0.564c-0.044-6.722-0.329-15.315-1.857-23.906
				c-2.68-15.085-6.969-30.017-12.747-44.38c-3.249-8.083-5.21-16.637-6.699-23.939c-1.741-8.575-2.98-17.596-3.685-26.815
				c-0.272-3.514-0.549-8.173-0.262-13.042c0.135-2.201,0.128-4.195-0.023-6.064h-44.747c-0.152,1.893-0.163,3.888-0.034,6.064
				c0.28,4.84,0.012,9.512-0.253,13.042c-0.705,9.175-1.948,18.196-3.693,26.815c-1.472,7.258-3.418,15.778-6.699,23.941
				c-2.693,6.7-5.068,13.544-7.068,20.375c0.877-0.113,2.035-0.216,3.447-0.239c0.23-0.005,0.472-0.007,0.72-0.007
				c3.037,0,7.815,0.379,13.338,2.188c3.316,1.048,6.228,2.288,8.887,3.787c1.774,0.947,3.22,1.831,4.524,2.768
				c1.231,0.823,2.878,1.971,4.417,3.347l0.2,0.167c1.362,1.141,2.771,2.32,4.02,3.718c0.357,0.384,0.743,0.777,1.131,1.172
				c0.963,0.98,1.958,1.994,2.801,3.17c0.388,0.517,0.808,1.046,1.229,1.577c0.78,0.982,1.587,1.998,2.302,3.083l5.893,9.305
				c0.66,1.153,1.271,1.876,1.916,2.641c0.291,0.345,0.579,0.687,0.866,1.057c0.765,1.082,1.748,2.004,2.79,2.979l0.215,0.207
				c0.772,0.859,1.688,1.512,2.659,2.203l0.584,0.419c1.924,1.421,4.14,2.528,7.193,3.597c0.686,0.244,1.388,0.4,2.131,0.565
				C370.503,315.124,371.049,315.246,371.588,315.4z M366.925,169.994h-55.645v-8.818c0-0.669-0.484-1.228-1.151-1.327l-1.019-0.152
				v-3.516l1.019-0.151c0.664-0.099,1.146-0.656,1.146-1.324v-1.944c0-0.667-0.482-1.223-1.146-1.322l-1.019-0.152v-3.518
				l1.019-0.152c0.664-0.099,1.146-0.655,1.146-1.322v-4.737h1.194c0.411,0,0.796-0.186,1.056-0.511l0.199-0.25l0.298-0.116
				c1.365-0.535,6.529-1.779,24.947-1.779c18.78,0,23.918,1.279,25.255,1.829l0.37,0.231l0.11,0.124
				c0.268,0.311,0.635,0.477,1.025,0.477h1.194v4.896c0,0.543,0.326,1.029,0.829,1.236L368.5,148l-0.021,3.06l-0.73,0.304
				c-0.5,0.208-0.823,0.694-0.823,1.238v2.271c0,0.545,0.326,1.031,0.829,1.238l0.745,0.307l-0.021,3.059l-0.731,0.304
				c-0.499,0.208-0.822,0.692-0.822,1.234V169.994z M313.669,167.604h50.867v-6.59c0-1.227,0.594-2.348,1.562-3.037l0.001-0.068
				c-0.971-0.688-1.563-1.809-1.563-3.037v-2.271c0-1.228,0.594-2.35,1.562-3.039l0.001-0.07c-0.971-0.688-1.563-1.809-1.563-3.036
				v-2.702c-0.542-0.182-1.037-0.488-1.444-0.897c-1.197-0.396-6.253-1.567-24.122-1.567c-17.434,0-22.567,1.133-23.825,1.528
				c-0.418,0.428-0.925,0.746-1.48,0.933v2.543c0,1.379-0.735,2.588-1.867,3.233c1.132,0.645,1.867,1.854,1.867,3.233v1.944
				c0,1.379-0.734,2.588-1.865,3.234c1.134,0.646,1.87,1.856,1.87,3.237V167.604z"/>
		</g>
		<g>
			<path d="M277.056,243.222c0,0-0.009,0.007-0.019,0.007c-0.074-10.711-0.578-21.961-2.604-33.393
				c-3.71-20.871-9.653-41.511-17.625-61.335c-4.135-10.284-6.658-21.296-8.56-30.714c-2.28-11.189-3.89-22.969-4.816-35.012
				c-0.345-4.483-0.693-10.405-0.336-16.402c0.245-4.014,0.159-7.657-0.224-11.131c-0.077-0.693-0.215-1.37-0.401-2.044
				c2.929-0.761,5.113-3.423,5.113-6.595v-8.678c1.314-1.267,2.098-3.027,2.098-4.929v-1.965c0-1.773-0.684-3.435-1.848-4.674
				c1.165-1.237,1.848-2.896,1.848-4.674v-1.962c0-1.897-0.784-3.671-2.098-4.928v-3.197c0-3.16-2.154-5.822-5.08-6.59
				c-1.93-1.51-8.224-3.811-37.722-3.811c-29.3,0-35.526,2.238-37.458,3.829c-2.877,0.803-4.994,3.447-4.994,6.571v2.562
				c-1.755,1.246-2.901,3.302-2.901,5.563v1.962c0,1.783,0.716,3.442,1.878,4.674c-1.157,1.234-1.878,2.886-1.878,4.674v1.965
				c0,2.261,1.146,4.31,2.901,5.563v8.048c0,2.9,1.829,5.381,4.387,6.366c-0.224,0.745-0.383,1.5-0.469,2.275
				c-0.392,3.477-0.467,7.115-0.224,11.128c0.345,6,0,11.915-0.333,16.402c-0.924,12.048-2.548,23.823-4.819,35.013
				c-1.911,9.418-4.424,20.425-8.56,30.714c-7.981,19.823-13.896,40.464-17.625,61.335c-2.445,13.808-2.714,27.384-2.641,40.006
				c0.037,4.023,0.1,8.116,0.177,12.06c0.065,3.426,0.128,6.964,0.166,10.436c0.086,8.662,0.264,18.155,0.56,29.87
				c0.315,12.068,0.94,24.035,1.888,35.572c0.707,8.615,1.342,17.38,1.949,25.855l0.317,4.191c0.128,1.829,0.261,3.654,0.401,5.479
				c0.488,6.665,0.999,13.544,1.381,20.302c0.42,7.439-0.924,14.683-2.343,22.355c-0.187,1.018-0.374,2.025-0.551,3.043
				c-1.465,8.074-2.891,17.632-2.485,27.34c0.159,3.594,0.196,7.28,0.227,10.842l0.019,1.139c0.096,8.741,0.168,17.487,0.252,26.233
				l0.077,8.933c0.04,3.323,0.067,6.655,0.086,9.979c0,0.579,0.068,1.106,0.119,1.531c0.04,0.303,0.077,0.588,0.068,0.756
				l-0.019,0.7l0.261,0.658c0.46,1.166,2.726,5.278,12.676,9.086c12.75,4.905,32.737,7.393,59.384,7.393
				c26.705,0,46.018-2.501,57.417-7.438c9.381-4.07,10.538-8.648,10.659-9.95l0.028-0.229l-0.009-0.224
				c0-0.173,0.027-0.453,0.064-0.761c0.057-0.42,0.131-0.942,0.131-1.521c0.019-3.327,0.047-6.66,0.075-9.987l0.089-8.933
				c0.074-8.742,0.153-17.488,0.252-26.229l0.009-1.139c0.037-3.557,0.075-7.248,0.233-10.842
				c0.411-9.703-1.018-19.261-2.482-27.335c-0.188-1.018-0.374-2.035-0.551-3.048c-1.429-7.668-2.764-14.911-2.343-22.355
				c0.373-6.758,0.891-13.642,1.381-20.301c0.141-1.825,0.271-3.655,0.401-5.475l0.309-4.201c0.615-8.471,1.25-17.235,1.945-25.846
				c0.943-11.537,1.578-23.513,1.891-35.577c0.304-11.715,0.485-21.212,0.561-29.869c0.037-3.478,0.098-7.011,0.168-10.432
				c0.084-3.95,0.153-8.046,0.172-12.064c0.01-2.166-0.009-4.392-0.027-6.609C277.047,243.234,277.056,243.222,277.056,243.222z
				 M166.262,32.996v-1.96c1.673-0.248,2.903-1.687,2.903-3.37v-2.614c0-1.692-1.234-3.115-2.903-3.365V19.73
				c1.673-0.254,2.903-1.687,2.903-3.37V11.6c1.036,0,2.025-0.479,2.669-1.295c1.449-0.569,7.896-2.289,32.957-2.289
				c25.55,0,31.962,1.778,33.344,2.336c0.021,0.026,0.04,0.044,0.059,0.068c0.644,0.747,1.587,1.176,2.576,1.176v4.975
				c0,1.381,0.821,2.623,2.107,3.15l-0.01,1.962c-1.281,0.523-2.098,1.769-2.098,3.146v3.055c0,1.375,0.821,2.618,2.107,3.144
				l-0.01,1.965c-1.281,0.525-2.098,1.769-2.098,3.146v10.459h-71.604V36.352C169.166,34.679,167.931,33.248,166.262,32.996z
				 M158.655,151.045c4.341-10.797,6.945-22.185,8.915-31.902c2.322-11.46,3.986-23.522,4.926-35.853
				c0.355-4.693,0.716-10.914,0.346-17.315c-0.217-3.58-0.159-6.805,0.184-9.859h63.085c0.334,3.055,0.392,6.275,0.177,9.855
				c-0.373,6.405-0.009,12.626,0.343,17.319c0.942,12.331,2.604,24.393,4.928,35.853c1.979,9.717,4.583,21.104,8.921,31.902
				c7.806,19.396,13.602,39.574,17.229,59.986c2.049,11.495,2.487,22.911,2.521,33.759c-2.057,0.392-4.527,0.721-7.3,1.018
				c-2.877,0.264-6.083,0.264-9.462,0.135c-1.692-0.14-3.417-0.432-5.18-0.661c-1.706-0.506-3.508-0.735-5.246-1.353
				c-3.465-1.213-6.944-2.728-10.09-5.055c-1.586-1.143-3.229-2.212-4.611-3.748c-1.486-1.396-2.987-2.772-4.114-4.378
				c-1.244-1.601-2.511-2.791-3.829-5.089l-3.713-5.869l-4.177-6.618c-1.44-2.17-3.165-4.153-4.721-6.209
				c-1.503-2.098-3.456-3.853-5.171-5.706c-1.696-1.888-3.661-3.498-5.554-5.085c-1.841-1.649-3.83-3.073-5.808-4.387
				c-1.93-1.391-3.937-2.572-5.935-3.633c-3.93-2.222-7.934-3.785-11.651-4.97c-7.441-2.432-13.945-2.938-18.381-2.861
				c-4.455,0.08-6.896,0.754-6.924,0.759C151.262,170.916,154.697,160.879,158.655,151.045z M270.075,261.777
				c-0.065,3.435-0.126,6.995-0.168,10.491c-0.075,8.63-0.262,18.09-0.558,29.767c-0.306,11.943-0.934,23.793-1.869,35.194
				c-0.698,8.639-1.342,17.418-1.96,25.912l-0.306,4.195c-0.119,1.82-0.261,3.649-0.401,5.47c-0.047,0.645-0.096,1.307-0.138,1.951
				c-0.726,0.158-1.496,0.322-2.38,0.494c-2.093,0.411-4.641,0.747-7.493,1.051c-2.877,0.266-6.083,0.266-9.462,0.135
				c-1.692-0.135-3.419-0.43-5.181-0.662c-1.706-0.5-3.51-0.729-5.248-1.354c-3.465-1.214-6.945-2.726-10.088-5.05
				c-1.587-1.148-3.232-2.217-4.613-3.753c-1.487-1.391-2.987-2.771-4.114-4.368c-1.241-1.605-2.509-2.791-3.827-5.097l-3.715-5.871
				l-4.182-6.617c-1.438-2.176-3.165-4.154-4.721-6.213c-1.5-2.095-3.456-3.85-5.171-5.703c-1.696-1.885-3.661-3.495-5.554-5.092
				c-1.839-1.643-3.827-3.062-5.806-4.387c-1.932-1.391-3.938-2.562-5.937-3.631c-3.927-2.222-7.934-3.78-11.651-4.966
				c-7.441-2.437-13.945-2.94-18.379-2.86c-4.473,0.079-6.935,0.76-6.935,0.76s2.476,0.574,6.476,2.04
				c4.004,1.461,9.5,3.901,15.474,7.532c1.487,0.929,3.036,1.854,4.518,3.016c1.5,1.105,3.105,2.142,4.583,3.467
				c1.528,1.251,3.115,2.46,4.573,3.939c1.496,1.409,3.074,2.763,4.464,4.396c2.975,3.033,5.719,6.478,8.401,10.053
				c1.271,1.849,2.613,3.654,3.857,5.554l3.554,5.862l4.24,6.478c1.094,1.97,3.292,4.242,5.131,6.348
				c0.98,1.026,1.86,2.184,2.912,3.066l3.183,2.566c2.016,1.792,4.356,3.159,6.709,4.401c4.62,2.608,9.677,3.977,14.386,4.695
				c2.359,0.321,4.683,0.294,6.877,0.363c2.203-0.215,4.31-0.383,6.279-0.695c3.956-0.695,7.402-1.806,10.312-3.038
				c2.931-1.181,5.302-2.544,7.199-3.715c0.438-0.28,0.763-0.504,1.146-0.771c-0.383,5.33-0.774,10.729-1.076,16.102
				c-0.458,8.256,1.02,16.237,2.448,23.975c0.187,1.009,0.374,2.017,0.548,3.016c1.468,8.093,2.763,16.824,2.372,25.832
				c-0.147,3.701-0.196,7.443-0.225,11.061l-0.019,1.135c-0.096,8.746-0.168,17.492-0.245,26.247l-0.086,8.863v0.061
				c-0.028,3.337-0.065,6.674-0.084,10.006c0,0.178-0.04,0.438-0.068,0.719c-0.049,0.336-0.096,0.729-0.119,1.157
				c-0.765,1.373-8.226,11.472-61.278,11.472c-52.365,0-63.733-9.94-65.526-12.008c-0.019-0.225-0.056-0.435-0.077-0.626
				c-0.038-0.284-0.065-0.541-0.065-0.714c-0.03-3.342-0.059-6.674-0.096-10.011l-0.077-8.928
				c-0.077-8.746-0.159-17.492-0.243-26.248l-0.021-1.129c-0.037-3.622-0.075-7.36-0.233-11.062
				c-0.383-9.012,0.913-17.739,2.38-25.837c0.177-0.999,0.352-2.007,0.548-3.015c1.431-7.729,2.903-15.719,2.448-23.971
				c-0.392-6.823-0.903-13.739-1.4-20.423c-0.128-1.824-0.273-3.649-0.401-5.47l-0.306-4.195c-0.616-8.494-1.253-17.273-1.96-25.912
				c-0.921-11.411-1.547-23.251-1.86-35.194c-0.301-11.677-0.485-21.137-0.558-29.767c-0.04-3.496-0.101-7.062-0.168-10.491
				c-0.077-3.93-0.147-7.998-0.177-11.983c-0.075-12.291,0.177-25.496,2.539-38.762c1.792-10.06,4.114-20.064,6.936-29.946
				c0.028,0.004,2.485,0.579,6.471,2.037c4.004,1.465,9.5,3.904,15.474,7.538c1.487,0.931,3.034,1.843,4.516,3.01
				c1.5,1.104,3.108,2.144,4.583,3.467c1.531,1.253,3.118,2.462,4.574,3.935c1.496,1.414,3.073,2.772,4.464,4.401
				c2.978,3.036,5.722,6.476,8.4,10.051c1.272,1.855,2.616,3.657,3.857,5.558l3.556,5.86l4.24,6.476
				c1.094,1.969,3.292,4.245,5.131,6.347c0.98,1.027,1.86,2.189,2.91,3.068l3.183,2.569c2.019,1.792,4.359,3.16,6.711,4.403
				c4.621,2.609,9.677,3.97,14.384,4.693c2.362,0.325,4.684,0.292,6.877,0.367c2.203-0.215,4.312-0.388,6.28-0.698
				c3.958-0.697,7.404-1.806,10.314-3.038c2.361-0.952,4.277-2.007,5.955-3.001c0,0.548,0.009,1.123,0.009,1.673
				C270.229,253.782,270.145,257.847,270.075,261.777z"/>
			<path d="M206.656,524.793c-26.801,0-46.925-2.514-59.813-7.472c-10.106-3.867-12.708-8.116-13.358-9.763l-0.351-0.884
				l0.025-0.944c0.002-0.156-0.03-0.356-0.058-0.568c-0.063-0.528-0.129-1.071-0.129-1.688c-0.019-3.313-0.047-6.644-0.086-9.964
				l-0.158-17.638c-0.053-5.845-0.107-11.688-0.171-17.53l-0.018-1.132c-0.033-3.867-0.073-7.343-0.226-10.809
				c-0.413-9.893,1.034-19.506,2.503-27.605c0.148-0.848,0.304-1.697,0.46-2.551l0.091-0.495c1.412-7.636,2.736-14.794,2.325-22.072
				c-0.36-6.358-0.836-12.851-1.295-19.129l-0.084-1.153c-0.14-1.822-0.273-3.65-0.402-5.481l-0.317-4.186
				c-0.625-8.729-1.244-17.271-1.948-25.848c-0.935-11.388-1.571-23.378-1.891-35.639c-0.295-11.676-0.474-21.173-0.561-29.89
				c-0.037-3.468-0.1-7.002-0.165-10.425c-0.078-3.946-0.141-8.043-0.178-12.071c-0.073-12.682,0.199-26.33,2.66-40.226
				c3.758-21.029,9.71-41.745,17.693-61.573c4.105-10.214,6.599-21.152,8.497-30.505c2.266-11.166,3.88-22.896,4.798-34.866
				c0.333-4.471,0.67-10.36,0.332-16.243c-0.246-4.07-0.171-7.777,0.229-11.331c0.055-0.49,0.138-0.986,0.249-1.482
				c-2.534-1.396-4.174-4.099-4.174-7.025v-7.463c-1.827-1.53-2.901-3.785-2.901-6.148v-1.965c0-1.678,0.536-3.303,1.526-4.672
				c-0.99-1.365-1.526-2.991-1.526-4.676v-1.962c0-2.37,1.074-4.625,2.901-6.149v-1.976c0-3.5,2.303-6.612,5.63-7.652
				C169.255,2.073,176.134,0,204.782,0c28.968,0,35.844,2.19,38.257,3.915c3.391,0.999,5.739,4.124,5.739,7.681v2.711
				c1.339,1.466,2.098,3.411,2.098,5.414v1.962c0,1.696-0.526,3.322-1.499,4.675c0.972,1.354,1.499,2.979,1.499,4.673v1.965
				c0,2.026-0.741,3.929-2.098,5.414v8.193c0,3.25-1.963,6.135-4.895,7.374c0.076,0.38,0.134,0.756,0.176,1.132
				c0.398,3.619,0.474,7.327,0.229,11.336c-0.354,5.945-0.007,11.801,0.335,16.238c0.928,12.073,2.542,23.804,4.796,34.865
				c1.88,9.314,4.361,20.22,8.497,30.507c8.025,19.958,13.977,40.673,17.693,61.572c2.007,11.325,2.481,22.327,2.598,31.08
				l5.941-4.952l-5.922,7.896c0.018,2.08,0.033,4.165,0.023,6.196c-0.016,3.476-0.07,7.316-0.172,12.084
				c-0.07,3.416-0.131,6.945-0.168,10.419c-0.073,8.466-0.251,17.964-0.561,29.888c-0.313,12.117-0.951,24.11-1.895,35.644
				c-0.677,8.385-1.297,16.927-1.897,25.187l-0.406,5.555c-0.113,1.589-0.229,3.184-0.351,4.774l-0.108,1.465
				c-0.455,6.174-0.926,12.559-1.271,18.81c-0.417,7.362,0.915,14.507,2.324,22.071c0.179,1.022,0.364,2.036,0.551,3.05
				c1.472,8.112,2.92,17.733,2.501,27.603c-0.156,3.565-0.194,7.229-0.231,10.773l-0.01,1.165c-0.099,8.745-0.178,17.49-0.252,26.23
				l-0.089,8.935c-0.028,3.324-0.057,6.656-0.075,9.982c0,0.627-0.074,1.177-0.134,1.618c-0.035,0.289-0.062,0.517-0.062,0.657
				l0.012,0.273l-0.04,0.326c-0.133,1.431-1.355,6.555-11.369,10.899C253.001,522.258,233.524,524.793,206.656,524.793z
				 M135.536,506.249l0.171,0.432c0.297,0.753,2.268,4.689,11.993,8.41c12.615,4.854,32.45,7.314,58.957,7.314
				c26.54,0,45.697-2.47,56.942-7.341c9.037-3.92,9.87-8.155,9.945-8.964l0.021-0.168l-0.006-0.128c0-0.252,0.028-0.585,0.072-0.951
				c0.062-0.463,0.123-0.905,0.123-1.378c0.019-3.335,0.047-6.669,0.075-9.997l0.089-8.935c0.074-8.742,0.153-17.489,0.252-26.231
				l0.009-1.134c0.037-3.597,0.075-7.281,0.234-10.886c0.408-9.633-1.017-19.09-2.465-27.069c-0.188-1.018-0.375-2.039-0.552-3.056
				c-1.435-7.696-2.791-14.979-2.359-22.628c0.347-6.271,0.818-12.667,1.274-18.853l0.108-1.469
				c0.122-1.591,0.236-3.182,0.351-4.766l0.406-5.557c0.601-8.265,1.221-16.812,1.899-25.208c0.939-11.49,1.574-23.438,1.887-35.512
				c0.309-11.909,0.486-21.394,0.561-29.849c0.037-3.483,0.098-7.021,0.168-10.445c0.101-4.756,0.155-8.583,0.172-12.045
				c0.01-2.161-0.01-4.382-0.027-6.593l-0.011-1.205h0.009c-0.086-8.857-0.497-20.269-2.576-31.994
				c-3.686-20.736-9.593-41.293-17.556-61.098c-4.209-10.466-6.721-21.505-8.623-30.923c-2.273-11.156-3.9-22.986-4.836-35.157
				c-0.347-4.513-0.7-10.474-0.337-16.565c0.236-3.875,0.165-7.449-0.219-10.93c-0.067-0.603-0.187-1.21-0.365-1.856l-0.324-1.169
				l1.175-0.305c2.483-0.646,4.218-2.882,4.218-5.438v-9.186l0.366-0.352c1.117-1.078,1.732-2.522,1.732-4.069v-1.965
				c0-1.441-0.541-2.81-1.524-3.855l-0.77-0.819l0.771-0.818c0.982-1.043,1.523-2.413,1.523-3.855v-1.962
				c0-1.532-0.63-3.014-1.729-4.065l-0.369-0.353v-3.708c0-2.553-1.722-4.787-4.188-5.434l-0.239-0.062l-0.194-0.152
				c-2.074-1.623-10.175-3.557-36.985-3.557c-21.486,0-33.833,1.197-36.699,3.557l-0.195,0.161l-0.243,0.068
				c-2.426,0.677-4.12,2.906-4.12,5.42v3.179l-0.503,0.357c-1.501,1.066-2.398,2.782-2.398,4.589v1.962
				c0,1.424,0.551,2.792,1.553,3.854l0.771,0.817l-0.769,0.82c-1.003,1.069-1.555,2.439-1.555,3.856v1.965
				c0,1.801,0.897,3.518,2.4,4.591l0.5,0.357v8.663c0,2.307,1.455,4.417,3.621,5.251l1.034,0.398l-0.319,1.061
				c-0.207,0.689-0.35,1.383-0.425,2.063c-0.385,3.417-0.457,6.99-0.219,10.924c0.347,6.025,0.003,12.017-0.334,16.563
				c-0.926,12.071-2.554,23.9-4.839,35.162c-1.919,9.458-4.445,20.528-8.622,30.922c-7.922,19.677-13.829,40.233-17.558,61.099
				c-2.427,13.707-2.695,27.224-2.623,39.789c0.037,4.015,0.1,8.104,0.177,12.043c0.066,3.43,0.129,6.971,0.166,10.446
				c0.087,8.705,0.265,18.19,0.56,29.853c0.319,12.215,0.953,24.161,1.884,35.505c0.705,8.588,1.324,17.137,1.95,25.868l0.317,4.187
				c0.128,1.833,0.261,3.655,0.401,5.477l0.084,1.157c0.461,6.288,0.937,12.79,1.298,19.169c0.427,7.565-0.922,14.86-2.351,22.585
				l-0.101,0.549c-0.156,0.846-0.311,1.688-0.458,2.537c-1.448,7.979-2.873,17.429-2.469,27.085c0.155,3.503,0.194,7,0.228,10.882
				l0.019,1.129c0.064,5.85,0.117,11.694,0.171,17.541l0.158,17.634c0.04,3.322,0.067,6.656,0.086,9.982
				c0,0.479,0.054,0.925,0.101,1.318c0.063,0.483,0.099,0.778,0.084,1.041L135.536,506.249z M206.661,517.971
				c-51.646,0-63.902-9.507-66.429-12.421l-0.255-0.295l-0.032-0.389c-0.009-0.11-0.024-0.216-0.039-0.317l-0.036-0.28
				c-0.042-0.316-0.072-0.63-0.072-0.841l-0.016-1.745c-0.025-2.753-0.049-5.501-0.08-8.252l-0.077-8.931
				c-0.077-8.746-0.159-17.492-0.243-26.247l-0.021-1.118c-0.038-3.658-0.076-7.371-0.233-11.033
				c-0.389-9.162,0.923-17.959,2.398-26.101l0.083-0.468c0.15-0.851,0.302-1.706,0.468-2.562c1.413-7.634,2.876-15.538,2.428-23.677
				c-0.404-7.024-0.932-14.13-1.398-20.399c-0.064-0.911-0.132-1.816-0.2-2.723c-0.069-0.918-0.138-1.836-0.202-2.752l-0.305-4.192
				c-0.615-8.474-1.25-17.234-1.96-25.901c-0.654-8.102-1.159-16.415-1.51-24.826l-3.556-0.827l3.483-0.964
				c-0.112-2.872-0.206-5.756-0.281-8.644c-0.316-12.275-0.488-21.462-0.558-29.788c-0.04-3.489-0.1-7.051-0.167-10.478
				c-0.066-3.341-0.145-7.725-0.178-11.998c-0.075-12.364,0.183-25.642,2.557-38.981c1.785-10.018,4.128-20.133,6.963-30.065
				l0.291-1.018l0.018,0.003c2.853-9.867,6.229-19.666,10.043-29.143c4.314-10.732,6.896-22.043,8.852-31.693
				c2.323-11.466,3.973-23.479,4.905-35.706c0.353-4.663,0.71-10.828,0.344-17.155c-0.222-3.655-0.16-6.948,0.189-10.062
				l0.119-1.062h65.225l0.116,1.065c0.341,3.122,0.401,6.411,0.182,10.057c-0.366,6.292-0.009,12.475,0.342,17.158
				c0.937,12.25,2.587,24.264,4.908,35.705c1.97,9.67,4.562,21,8.859,31.694c7.837,19.475,13.656,39.737,17.296,60.222
				c2.195,12.32,2.51,24.623,2.538,33.964l0.004,0.992l-0.975,0.186c-1.938,0.37-4.357,0.708-7.396,1.032
				c-2.688,0.247-5.7,0.291-9.635,0.141c-1.244-0.102-2.461-0.274-3.638-0.442c-0.546-0.078-1.097-0.156-1.651-0.228l-0.186-0.039
				c-0.685-0.203-1.389-0.36-2.135-0.525c-1.034-0.23-2.103-0.467-3.172-0.847c-4.388-1.537-7.598-3.147-10.4-5.22l-0.692-0.494
				c-1.379-0.979-2.806-1.992-4.062-3.377l-0.199-0.187c-1.426-1.337-2.901-2.72-4.04-4.342c-0.322-0.412-0.681-0.836-1.042-1.263
				c-0.916-1.083-1.862-2.204-2.846-3.918l-7.863-12.444c-0.902-1.359-1.97-2.703-3.002-4.001c-0.562-0.707-1.121-1.411-1.661-2.125
				c-1.02-1.423-2.277-2.707-3.493-3.948c-0.543-0.555-1.084-1.107-1.603-1.667c-1.535-1.708-3.323-3.205-5.053-4.653l-0.392-0.328
				c-1.568-1.404-3.317-2.724-5.701-4.307c-1.699-1.223-3.595-2.384-5.834-3.574c-3.383-1.912-7.121-3.506-11.454-4.887
				c-7.114-2.325-13.265-2.812-17.174-2.812c-0.282,0-0.557,0.002-0.823,0.007c-0.461,0.008-0.899,0.023-1.315,0.042
				c0.394,0.138,0.805,0.284,1.233,0.441c3.58,1.31,9.206,3.698,15.684,7.639l0.717,0.447c1.286,0.797,2.616,1.622,3.917,2.646
				c0.368,0.27,0.775,0.559,1.185,0.85c1.145,0.813,2.33,1.655,3.457,2.667l0.858,0.694c1.253,1.012,2.55,2.058,3.767,3.29
				c0.311,0.292,0.654,0.611,0.999,0.93c1.183,1.095,2.406,2.226,3.524,3.535c3.261,3.32,6.231,7.151,8.448,10.11
				c0.519,0.755,1.02,1.461,1.521,2.169c0.791,1.116,1.608,2.27,2.38,3.453l3.577,5.893l4.218,6.44
				c0.858,1.538,2.404,3.268,3.9,4.941c0.384,0.429,0.765,0.855,1.131,1.274c0.312,0.326,0.647,0.706,0.982,1.085
				c0.604,0.687,1.176,1.334,1.796,1.854l3.166,2.556c2.046,1.814,4.441,3.178,6.52,4.277c3.965,2.239,8.537,3.728,14.007,4.568
				c1.714,0.236,3.455,0.274,5.138,0.312c0.513,0.011,1.02,0.022,1.52,0.039l1.103-0.105c1.775-0.168,3.451-0.327,5.028-0.576
				c3.458-0.609,6.842-1.606,10.035-2.958c2.401-0.968,4.284-2.023,5.812-2.929l1.804-1.069l0.009,3.77
				c-0.003,3.493-0.068,7.061-0.131,10.512l-0.027,1.485c-0.065,3.433-0.126,6.991-0.168,10.484
				c-0.071,8.183-0.243,17.369-0.558,29.782c-0.307,11.995-0.937,23.858-1.873,35.262c-0.683,8.445-1.316,17.071-1.959,25.901
				l-0.306,4.195c-0.112,1.719-0.246,3.454-0.379,5.183l-0.036,0.474c-0.042,0.582-0.086,1.176-0.124,1.756l-0.23,3.044
				c-0.363,5.055-0.738,10.281-1.027,15.421c-0.448,8.094,1.01,15.995,2.419,23.636l0.043,0.23c0.176,0.954,0.353,1.907,0.518,2.852
				c1.475,8.132,2.786,16.926,2.388,26.09c-0.149,3.767-0.196,7.521-0.224,11.019l-0.019,1.145
				c-0.079,7.256-0.143,14.519-0.206,21.786l-0.153,16.597c-0.021,2.262-0.043,4.522-0.056,6.781c0,0.151-0.021,0.359-0.047,0.592
				l-0.027,0.24c-0.051,0.356-0.094,0.713-0.114,1.103l-0.016,0.275l-0.134,0.241C267.858,507.904,259.568,517.971,206.661,517.971z
				 M142.276,504.244c2.352,2.41,14.453,11.338,64.385,11.338c50.239,0,59.008-9.161,60.107-10.666
				c0.027-0.343,0.067-0.66,0.108-0.94l0.024-0.226c0.015-0.124,0.031-0.236,0.031-0.321c0.013-2.269,0.034-4.532,0.055-6.797
				l0.154-16.595c0.063-7.27,0.126-14.534,0.206-21.798l0.019-1.142c0.028-3.506,0.074-7.284,0.226-11.089
				c0.388-8.934-0.902-17.569-2.354-25.571c-0.165-0.944-0.34-1.89-0.515-2.836l-0.032-0.176c-1.446-7.835-2.93-15.879-2.466-24.258
				c0.256-4.576,0.582-9.212,0.905-13.733c-1.719,1.029-3.903,2.231-6.535,3.292c-3.345,1.417-6.902,2.465-10.551,3.106
				c-1.645,0.261-3.325,0.419-5.104,0.587l-1.344,0.128l-0.077-0.002c-0.484-0.016-0.975-0.026-1.471-0.037
				c-1.784-0.038-3.628-0.078-5.529-0.337c-5.683-0.867-10.66-2.494-14.812-4.839c-2.174-1.147-4.723-2.6-6.916-4.549l-3.139-2.529
				c-0.779-0.652-1.438-1.399-2.076-2.122c-0.312-0.354-0.625-0.709-0.95-1.049c-0.403-0.46-0.785-0.888-1.169-1.317
				c-1.575-1.763-3.204-3.586-4.142-5.275l-4.195-6.403l-3.576-5.897c-0.737-1.123-1.551-2.271-2.338-3.383
				c-0.498-0.703-0.996-1.405-1.482-2.113c-2.157-2.874-5.076-6.637-8.27-9.893c-1.089-1.274-2.267-2.361-3.405-3.411
				c-0.344-0.317-0.687-0.634-1.025-0.952c-1.162-1.178-2.41-2.186-3.617-3.16l-0.894-0.725c-1.062-0.95-2.179-1.745-3.261-2.514
				c-0.43-0.305-0.856-0.607-1.274-0.916c-1.262-0.989-2.575-1.804-3.844-2.592l-0.598-0.372c-6.323-3.844-11.785-6.159-15.25-7.424
				c-2.135-0.782-3.835-1.308-4.935-1.623c0.348,8.137,0.841,16.179,1.474,24.021c0.71,8.677,1.346,17.443,1.961,25.921l0.306,4.195
				c0.064,0.916,0.133,1.83,0.202,2.745c0.068,0.909,0.136,1.818,0.2,2.728c0.467,6.274,0.996,13.392,1.401,20.438
				c0.464,8.426-1.025,16.474-2.466,24.257c-0.166,0.853-0.315,1.695-0.463,2.532l-0.084,0.474
				c-1.452,8.01-2.742,16.648-2.363,25.577c0.159,3.7,0.197,7.433,0.234,11.042l0.021,1.177c0.084,8.768,0.166,17.514,0.243,26.26
				l0.077,8.928c0.03,2.751,0.055,5.5,0.08,8.255l0.016,1.756c0,0.146,0.026,0.346,0.055,0.568l0.03,0.237
				C142.274,504.23,142.275,504.237,142.276,504.244z M145.872,312.05c0.393,0.138,0.804,0.284,1.232,0.441
				c3.565,1.301,9.182,3.682,15.683,7.633l0.605,0.377c1.324,0.822,2.693,1.672,4.03,2.72c0.379,0.278,0.794,0.573,1.212,0.871
				c1.135,0.807,2.31,1.641,3.431,2.646l0.84,0.68c1.259,1.017,2.562,2.067,3.787,3.311c0.301,0.282,0.637,0.593,0.975,0.904
				c1.191,1.099,2.422,2.234,3.548,3.557c3.235,3.294,6.217,7.137,8.447,10.11c0.509,0.738,1,1.432,1.492,2.125
				c0.8,1.129,1.626,2.296,2.409,3.491l3.576,5.897l4.218,6.442c0.854,1.53,2.393,3.252,3.88,4.918
				c0.391,0.437,0.779,0.871,1.152,1.298c0.31,0.323,0.645,0.701,0.978,1.079c0.606,0.687,1.179,1.335,1.803,1.858l3.165,2.552
				c2.046,1.816,4.439,3.178,6.517,4.274c3.929,2.218,8.632,3.75,14.008,4.571c1.748,0.237,3.523,0.275,5.24,0.312
				c0.478,0.011,0.951,0.021,1.419,0.035l1.197-0.114c1.74-0.164,3.384-0.318,4.933-0.564c3.453-0.607,6.835-1.604,10.034-2.959
				c2.945-1.187,5.307-2.563,7.038-3.631c0.398-0.255,0.706-0.467,1.064-0.717c-0.397,0.083-0.815,0.168-1.262,0.255
				c-1.95,0.383-4.364,0.722-7.595,1.066c-2.69,0.248-5.707,0.291-9.635,0.141c-1.265-0.101-2.508-0.278-3.71-0.451
				c-0.523-0.075-1.05-0.15-1.58-0.221l-0.18-0.038c-0.672-0.197-1.362-0.35-2.092-0.512c-1.051-0.232-2.138-0.474-3.224-0.864
				c-4.391-1.538-7.6-3.146-10.394-5.213l-0.73-0.523c-1.368-0.973-2.781-1.979-4.025-3.353l-0.134-0.125
				c-1.45-1.355-2.949-2.757-4.104-4.392c-0.329-0.424-0.691-0.854-1.057-1.285c-0.911-1.08-1.853-2.196-2.832-3.908l-7.869-12.442
				c-0.9-1.362-1.966-2.702-2.996-3.998c-0.564-0.709-1.126-1.416-1.668-2.133c-1.016-1.418-2.271-2.698-3.484-3.938
				c-0.546-0.557-1.089-1.111-1.611-1.675c-1.506-1.673-3.26-3.149-4.956-4.576l-0.492-0.414c-1.947-1.739-4.068-3.214-5.7-4.307
				c-1.671-1.202-3.515-2.329-5.835-3.57c-3.361-1.901-7.099-3.493-11.451-4.881C158.07,312.488,151.93,312,148.027,312
				c-0.292,0-0.577,0.003-0.853,0.008C146.719,312.017,146.284,312.031,145.872,312.05z M240.405,374.602
				c0.509,0.068,1.014,0.141,1.517,0.213c1.219,0.175,2.371,0.34,3.512,0.431c3.691,0.143,6.701,0.104,9.257-0.133
				c3.143-0.335,5.491-0.664,7.373-1.033c0.531-0.104,1.019-0.204,1.48-0.301c0.021-0.292,0.042-0.584,0.063-0.873l0.036-0.483
				c0.133-1.719,0.266-3.445,0.378-5.164l0.307-4.204c0.643-8.835,1.277-17.466,1.961-25.922c0.932-11.359,1.56-23.178,1.866-35.128
				c0.314-12.399,0.486-21.573,0.558-29.747c0.042-3.503,0.103-7.065,0.168-10.503l0.026-1.485
				c0.061-3.314,0.123-6.737,0.131-10.087c-1.236,0.677-2.661,1.385-4.322,2.054c-3.339,1.415-6.897,2.462-10.554,3.107
				c-1.671,0.264-3.384,0.426-5.196,0.598l-1.253,0.12l-0.079-0.002c-0.516-0.018-1.04-0.03-1.569-0.042
				c-1.75-0.039-3.561-0.079-5.429-0.336c-5.779-0.888-10.617-2.469-14.809-4.836c-2.175-1.15-4.725-2.604-6.917-4.55l-3.14-2.533
				c-0.776-0.649-1.435-1.397-2.071-2.12c-0.313-0.356-0.627-0.712-0.953-1.054c-0.396-0.451-0.771-0.871-1.149-1.293
				c-1.583-1.771-3.22-3.602-4.163-5.298l-4.195-6.401l-3.578-5.895c-0.726-1.112-1.53-2.247-2.308-3.344
				c-0.508-0.718-1.016-1.434-1.513-2.159c-2.144-2.859-5.051-6.609-8.268-9.89c-1.083-1.263-2.253-2.346-3.385-3.394
				c-0.351-0.325-0.701-0.649-1.047-0.976c-1.152-1.165-2.396-2.168-3.598-3.139l-0.912-0.74c-1.068-0.956-2.195-1.757-3.286-2.532
				c-0.421-0.299-0.838-0.596-1.248-0.897c-1.226-0.965-2.498-1.753-3.729-2.516l-0.713-0.444
				c-6.299-3.832-11.771-6.155-15.25-7.428c-2.352-0.86-4.163-1.408-5.23-1.706c-2.67,9.492-4.886,19.142-6.589,28.703
				c-2.341,13.15-2.595,26.297-2.52,38.545c0.032,4.258,0.111,8.632,0.177,11.967c0.068,3.433,0.129,7.002,0.168,10.501
				c0.069,8.315,0.241,17.489,0.557,29.749c0.071,2.719,0.159,5.433,0.262,8.137c1.204-0.212,3.201-0.473,5.903-0.521
				c0.29-0.006,0.588-0.008,0.896-0.008c4.076,0,10.486,0.508,17.876,2.927c4.502,1.436,8.387,3.092,11.868,5.062
				c2.392,1.278,4.321,2.459,6.046,3.701c1.664,1.113,3.872,2.65,5.904,4.466l0.463,0.39c1.759,1.479,3.577,3.01,5.183,4.794
				c0.495,0.534,1.022,1.072,1.552,1.613c1.277,1.303,2.598,2.65,3.702,4.193c0.512,0.676,1.062,1.368,1.614,2.062
				c1.062,1.336,2.161,2.718,3.133,4.188l7.909,12.508c0.898,1.568,1.73,2.555,2.611,3.598c0.387,0.459,0.771,0.914,1.152,1.407
				c1.044,1.477,2.389,2.734,3.814,4.066l0.244,0.233c1.076,1.197,2.336,2.094,3.669,3.043l0.756,0.541
				c2.604,1.925,5.618,3.431,9.782,4.89c0.952,0.343,1.918,0.557,2.942,0.783C238.955,374.234,239.685,374.395,240.405,374.602z
				 M248.534,244.11c0.532,0.07,1.061,0.145,1.586,0.22c1.196,0.17,2.325,0.33,3.446,0.423c3.688,0.137,6.703,0.1,9.255-0.135
				c2.464-0.263,4.511-0.535,6.209-0.825c-0.049-9.113-0.411-20.846-2.498-32.552c-3.611-20.324-9.384-40.426-17.161-59.749
				c-4.368-10.873-6.993-22.333-8.984-32.11c-2.34-11.538-4.005-23.649-4.949-36c-0.357-4.759-0.719-11.044-0.345-17.48
				c0.186-3.097,0.164-5.919-0.068-8.591h-60.921c-0.237,2.665-0.261,5.488-0.072,8.592c0.375,6.472,0.012,12.74-0.347,17.478
				c-0.939,12.326-2.604,24.438-4.946,36c-1.978,9.756-4.59,21.2-8.977,32.11c-3.672,9.124-6.936,18.549-9.711,28.045
				c1.217-0.184,2.968-0.369,5.212-0.409c0.281-0.005,0.569-0.007,0.866-0.007c4.082,0,10.502,0.508,17.908,2.928
				c4.483,1.429,8.368,3.087,11.868,5.066c2.309,1.227,4.295,2.443,6.045,3.704c2.446,1.623,4.279,3.008,5.907,4.466l0.36,0.301
				c1.793,1.501,3.648,3.054,5.285,4.875c0.492,0.531,1.017,1.067,1.544,1.605c1.279,1.306,2.601,2.656,3.709,4.203
				c0.51,0.673,1.059,1.363,1.608,2.055c1.063,1.338,2.163,2.722,3.137,4.189l7.904,12.509c0.902,1.571,1.739,2.561,2.625,3.609
				c0.382,0.452,0.761,0.901,1.138,1.386c1.031,1.466,2.353,2.706,3.752,4.019l0.307,0.293c1.087,1.208,2.358,2.11,3.703,3.065
				l0.718,0.513c2.614,1.933,5.629,3.44,9.787,4.896c0.936,0.333,1.887,0.544,2.895,0.768
				C247.053,243.73,247.798,243.896,248.534,244.11z M241.965,47.791h-73.994V36.352c0-1.077-0.811-2.012-1.887-2.174l-1.017-0.154
				v-4.019l1.02-0.151c1.074-0.159,1.883-1.099,1.883-2.188v-2.614c0-1.102-0.793-2.02-1.885-2.183l-1.018-0.152v-4.014l1.015-0.154
				c1.094-0.167,1.888-1.087,1.888-2.188v-5.955h1.195c0.669,0,1.316-0.314,1.731-0.84l0.201-0.254l0.301-0.118
				c1.815-0.713,8.703-2.372,33.394-2.372c25.081,0,31.986,1.694,33.791,2.423l0.28,0.113l0.268,0.321
				c0.386,0.446,0.995,0.723,1.64,0.723h1.195v6.17c0,0.902,0.536,1.705,1.366,2.045l0.746,0.306l-0.018,3.566l-0.739,0.302
				c-0.823,0.336-1.354,1.137-1.354,2.04v3.055c0,0.899,0.536,1.699,1.364,2.038l0.747,0.305l-0.018,3.569l-0.738,0.302
				c-0.824,0.338-1.356,1.138-1.356,2.04V47.791z M170.36,45.401h69.215v-9.264c0-1.592,0.803-3.035,2.101-3.868l0.003-0.524
				c-1.3-0.833-2.104-2.273-2.104-3.862v-3.055c0-1.594,0.803-3.037,2.101-3.868l0.003-0.522c-1.3-0.834-2.104-2.278-2.104-3.868
				v-3.937c-0.808-0.216-1.547-0.65-2.132-1.264c-1.532-0.518-8.311-2.159-32.652-2.159c-23.59,0-30.459,1.508-32.255,2.111
				c-0.588,0.632-1.348,1.087-2.176,1.312v3.727c0,1.934-1.173,3.598-2.903,4.278v0.139c1.73,0.677,2.903,2.34,2.903,4.275v2.614
				c0,1.904-1.193,3.591-2.903,4.276v0.149c1.71,0.687,2.903,2.368,2.903,4.261V45.401z"/>
		</g>
	</g>
</g>
<g>
</g>
<g>
</g>
<g>
</g>
<g>
</g>
<g>
</g>
<g>
</g>
<g>
</g>
<g>
</g>
<g>
</g>
<g>
</g>
<g>
</g>
<g>
</g>
<g>
</g>
<g>
</g>
<g>
</g>
</svg>
