<?xml version="1.0" standalone="no"?>
<!DOCTYPE svg PUBLIC "-//W3C//DTD SVG 20010904//EN"
 "http://www.w3.org/TR/2001/REC-SVG-20010904/DTD/svg10.dtd">
<svg version="1.0" xmlns="http://www.w3.org/2000/svg"
 width="595.000000pt" height="578.000000pt" viewBox="0 0 595.000000 578.000000"
 preserveAspectRatio="xMidYMid meet">

<g transform="translate(0.000000,578.000000) scale(0.100000,-0.100000)"
fill="#98DBD9" stroke="none">
<path d="M2920 5709 c-19 -12 -40 -29 -47 -38 -10 -13 -15 -14 -30 -3 -10 7
-38 22 -62 33 -66 32 -147 10 -192 -51 l-22 -29 -30 21 c-36 26 -116 35 -157
18 -29 -12 -83 -65 -91 -89 -3 -7 -18 -4 -44 9 -49 26 -123 23 -163 -7 -25
-18 -66 -71 -74 -94 -2 -6 -15 -4 -33 5 -41 22 -91 20 -141 -5 -34 -16 -49
-32 -70 -74 -22 -47 -29 -53 -44 -45 -29 15 -102 11 -137 -8 -39 -20 -79 -73
-88 -114 -7 -28 -8 -29 -50 -23 -84 13 -165 -45 -183 -131 -8 -38 -9 -39 -63
-45 -30 -3 -64 -11 -76 -18 -38 -20 -74 -77 -81 -128 l-7 -48 -48 -7 c-89 -12
-147 -81 -147 -172 0 -45 -1 -46 -33 -46 -41 0 -101 -40 -124 -83 -10 -20 -17
-54 -17 -88 l1 -57 -38 -11 c-41 -12 -105 -77 -115 -116 -5 -22 -4 -40 8 -109
2 -14 -5 -21 -27 -27 -42 -12 -93 -64 -107 -111 -11 -38 -6 -76 16 -129 5 -12
-1 -20 -24 -29 -43 -18 -87 -72 -95 -118 -7 -42 8 -117 26 -128 6 -3 -7 -21
-31 -41 -22 -19 -47 -48 -55 -64 -22 -42 -18 -108 9 -153 l24 -38 -38 -37
c-65 -62 -74 -156 -20 -224 23 -30 25 -43 6 -50 -7 -3 -24 -26 -36 -52 -30
-62 -24 -122 19 -175 17 -21 31 -42 31 -45 0 -4 -9 -18 -20 -32 -53 -68 -45
-158 20 -221 l38 -38 -24 -39 c-35 -58 -33 -120 6 -174 17 -23 42 -47 55 -53
29 -13 30 -17 10 -45 -28 -39 -29 -103 -3 -153 20 -38 65 -81 99 -92 5 -2 2
-21 -8 -46 -14 -38 -15 -50 -4 -90 15 -57 42 -89 98 -114 39 -17 42 -21 33
-44 -31 -81 22 -193 100 -210 14 -3 30 -7 37 -9 7 -2 11 -26 10 -62 -2 -95 48
-159 133 -170 40 -6 40 -6 40 -50 0 -93 61 -162 150 -171 49 -4 50 -5 50 -38
0 -45 14 -77 49 -113 37 -38 69 -51 125 -51 43 0 43 -1 49 -39 11 -82 78 -136
169 -134 53 1 57 -1 63 -25 11 -43 58 -100 97 -118 35 -16 93 -16 130 0 13 6
21 -2 36 -37 37 -84 119 -122 202 -93 24 8 45 14 45 13 15 -38 65 -92 98 -108
53 -24 81 -23 137 2 29 13 46 16 48 9 8 -22 55 -71 83 -85 43 -23 108 -18 153
10 l40 24 35 -38 c35 -38 102 -67 132 -57 8 2 26 7 40 10 14 3 38 17 54 30
l29 25 37 -34 c65 -59 153 -59 217 0 l37 33 43 -31 c72 -52 172 -37 222 33
l21 30 43 -25 c50 -29 108 -33 154 -10 31 16 76 62 84 87 4 10 11 8 31 -4 73
-48 174 -24 223 54 16 23 29 44 29 45 0 1 21 -5 45 -13 85 -29 170 11 204 97
13 32 20 39 34 34 31 -12 81 -18 107 -11 41 10 103 74 117 118 12 40 12 40 53
34 87 -14 185 61 185 140 0 31 0 32 59 36 96 7 161 72 161 161 0 34 1 35 50
39 89 9 150 78 150 171 0 44 0 44 40 50 85 11 148 98 135 184 -6 42 -6 42 32
53 93 26 146 127 113 214 -9 23 -6 27 33 44 51 23 81 55 96 104 13 38 6 103
-12 126 -5 7 -8 14 -6 15 2 2 23 15 46 30 76 48 102 135 64 210 l-19 38 25 16
c79 52 105 149 60 228 l-23 40 37 37 c65 64 71 148 15 220 l-26 35 26 24 c68
62 70 168 5 236 -26 27 -26 34 0 67 52 66 44 155 -20 216 l-37 35 23 40 c44
77 25 161 -50 220 l-34 28 20 40 c23 49 19 116 -10 156 -18 24 -71 65 -93 73
-5 2 -2 23 7 48 10 29 14 58 10 80 -9 47 -60 108 -108 126 -35 14 -37 18 -28
41 34 89 -25 194 -123 218 -26 7 -27 10 -22 46 14 84 -51 175 -134 188 -37 6
-37 7 -43 65 -10 90 -63 146 -147 156 l-47 5 -7 48 c-12 89 -81 147 -172 147
-46 0 -46 0 -46 34 0 43 -35 95 -85 124 -32 18 -50 22 -92 18 -49 -4 -52 -3
-58 22 -24 98 -129 157 -219 123 -22 -9 -26 -7 -34 18 -15 43 -69 98 -109 112
-39 12 -108 5 -132 -14 -11 -9 -15 -9 -18 0 -9 25 -49 77 -75 96 -39 29 -114
33 -160 9 l-37 -19 -31 38 c-17 22 -45 46 -62 55 -42 22 -125 15 -165 -14
l-30 -21 -23 30 c-51 70 -150 84 -225 33 -38 -26 -55 -30 -55 -14 0 5 -20 21
-43 35 -55 32 -118 33 -167 4z m358 -174 c969 -101 1810 -727 2185 -1625 181
-433 243 -902 182 -1381 -48 -387 -200 -790 -420 -1119 -114 -171 -198 -273
-340 -416 -607 -609 -1439 -878 -2313 -748 -270 40 -607 156 -856 295 -100 56
-284 173 -296 189 -3 3 -21 17 -40 30 -19 13 -64 49 -100 79 -406 347 -701
802 -845 1306 -168 589 -129 1226 110 1785 134 315 317 582 570 835 434 435
986 704 1570 765 61 6 119 13 130 14 63 10 336 4 463 -9z"/>
<path d="M2960 4911 c-24 -5 2 -9 85 -14 66 -4 145 -13 175 -21 102 -26 316
-56 403 -56 51 0 87 -4 87 -10 0 -13 27 -13 32 1 9 27 218 40 265 15 15 -8 76
-64 136 -125 120 -124 122 -129 82 -217 -14 -30 -25 -57 -25 -61 0 -3 -10 -16
-22 -27 -37 -36 -76 -84 -52 -63 11 9 25 17 31 17 6 0 13 3 15 8 6 14 85 71
91 66 3 -4 9 5 13 20 7 29 19 34 28 10 13 -35 2 -99 -15 -88 -5 3 -9 -8 -9
-25 0 -34 -16 -50 -23 -24 -3 12 -5 9 -6 -8 -1 -22 -11 -32 -55 -53 -64 -31
-146 -57 -158 -50 -5 3 -14 1 -21 -5 -7 -5 -25 -14 -39 -20 -43 -16 -25 7 47
64 35 28 64 53 64 58 1 4 -25 -13 -56 -39 -32 -25 -74 -57 -93 -72 -53 -40
-120 -111 -130 -138 -12 -30 -30 -31 -30 -1 0 31 31 71 131 169 86 84 189 225
189 256 -1 9 -10 0 -21 -22 -22 -41 -76 -97 -231 -241 -66 -61 -98 -97 -98
-112 0 -31 -19 -38 -29 -11 -6 13 -10 17 -10 10 -1 -7 6 -26 14 -43 20 -37 11
-52 -26 -47 -16 3 -29 0 -29 -5 0 -5 -7 -7 -15 -3 -8 3 -15 1 -15 -4 0 -5 -8
-9 -17 -9 -10 1 -28 -2 -40 -6 -18 -6 -23 -3 -23 10 0 21 79 188 134 280 49
84 59 112 85 230 17 77 42 247 41 280 -1 6 -8 -3 -16 -19 -10 -17 -19 -72 -24
-140 -4 -61 -13 -124 -18 -141 -6 -16 -13 -43 -17 -59 -3 -15 -8 -26 -11 -23
-3 2 2 35 11 71 18 82 18 81 1 63 -8 -7 -20 -49 -27 -93 -15 -93 -42 -155
-105 -244 -53 -75 -94 -160 -94 -196 0 -31 -24 -41 -110 -45 l-65 -4 2 35 c1
19 6 55 11 80 40 186 102 518 99 530 -2 8 -16 -50 -31 -130 -36 -189 -48 -207
-41 -60 5 98 47 334 62 350 2 2 9 -2 14 -10 9 -12 10 -12 5 3 -3 10 -6 23 -6
28 0 21 -17 7 -27 -23 -48 -137 -90 -391 -93 -572 -1 -59 -7 -94 -25 -136 -13
-30 -23 -64 -22 -75 2 -17 -6 -19 -72 -22 -50 -2 -82 2 -102 13 -28 14 -29 14
-29 -8 0 -17 -3 -19 -12 -10 -7 7 -8 15 -1 24 5 7 8 49 7 93 -2 44 -4 163 -5
265 -2 102 -5 151 -6 110 -2 -41 -8 -79 -13 -86 -6 -6 -8 -47 -6 -90 3 -51 -1
-98 -10 -134 -8 -30 -17 -70 -19 -88 -2 -22 -15 -44 -38 -66 -32 -30 -41 -33
-88 -32 -51 1 -54 3 -76 41 -13 22 -33 73 -45 114 -25 85 -37 81 -14 -5 8 -32
13 -60 11 -62 -2 -2 -9 16 -15 39 -17 63 -118 350 -132 374 -20 35 -58 113
-58 120 0 3 5 3 12 -1 12 -8 12 -7 -39 73 -29 45 -63 82 -52 57 20 -46 64
-112 72 -107 6 4 8 0 4 -10 -3 -8 12 -60 34 -114 52 -125 79 -202 119 -333 17
-58 38 -122 45 -142 l13 -38 -69 0 c-149 0 -223 67 -347 316 -27 55 -62 120
-77 145 -32 50 -85 108 -85 93 0 -6 13 -23 30 -37 30 -27 86 -125 76 -134 -2
-3 -16 18 -30 46 -15 28 -29 51 -32 51 -7 0 141 -283 173 -330 12 -19 23 -42
23 -51 0 -8 11 -26 25 -39 14 -13 25 -29 25 -37 0 -20 -64 -16 -91 6 -18 14
-27 16 -40 8 -22 -14 -120 22 -172 64 -21 17 -59 39 -85 50 -26 12 -61 27 -79
35 -17 8 -38 14 -45 14 -24 0 -51 -37 -43 -57 6 -17 8 -16 22 5 18 25 45 29
63 7 7 -8 39 -31 71 -51 33 -19 59 -40 59 -45 0 -5 6 -9 14 -9 7 0 19 -6 25
-13 9 -12 -12 -14 -124 -15 -141 0 -157 -4 -176 -47 -5 -11 -21 -36 -35 -54
-25 -36 -28 -61 -7 -68 8 -3 10 4 7 21 -3 16 3 33 18 49 22 24 28 25 179 30
149 4 155 4 154 -15 -1 -16 -67 -88 -80 -88 -6 0 -61 -57 -86 -89 -15 -19 -22
-22 -31 -13 -15 15 -146 16 -184 2 -15 -6 -34 -8 -43 -5 -9 2 -34 44 -55 92
-68 152 -54 259 47 358 48 47 62 63 136 157 30 37 60 69 67 72 8 3 14 11 14
17 0 18 105 171 142 206 60 57 287 159 521 233 21 7 36 14 34 17 -5 4 -50 -9
-338 -97 -238 -73 -266 -91 -328 -211 -90 -174 -187 -318 -259 -383 -25 -23
-57 -69 -80 -114 -50 -102 -50 -158 -2 -234 18 -29 42 -71 53 -93 11 -22 24
-43 30 -47 6 -4 45 -6 86 -6 48 1 96 -5 128 -16 47 -16 54 -16 81 -2 17 9 32
20 34 26 6 20 243 250 257 250 12 0 13 -21 7 -132 -11 -217 -51 -439 -102
-572 -11 -28 -12 -42 -4 -50 8 -8 13 -7 19 2 5 9 38 4 142 -23 447 -117 987
-77 1393 101 44 19 85 33 92 30 7 -3 26 7 41 22 15 15 45 38 66 51 50 30 41
38 -12 11 l-41 -21 -11 28 c-25 64 -107 484 -116 593 -5 63 -4 68 16 75 11 3
21 11 21 16 0 15 97 55 180 73 117 26 172 57 214 121 60 89 106 209 106 276 0
27 -11 50 -46 95 -65 85 -222 242 -269 269 -57 34 -124 40 -224 21 -105 -20
-289 -20 -446 -1 -119 15 -349 18 -415 6z m849 -1196 c6 -38 18 -109 27 -157
9 -48 14 -93 12 -100 -6 -16 -40 98 -40 132 0 14 -4 30 -10 37 -5 6 -14 64
-19 130 -6 65 -14 129 -17 143 -5 24 -6 24 -9 3 -8 -46 31 -319 54 -370 7 -17
12 -35 11 -40 -1 -4 10 -40 25 -79 15 -39 25 -78 22 -86 -7 -16 -104 -62 -113
-53 -3 3 -20 -6 -38 -20 -18 -14 -40 -25 -48 -25 -18 0 -21 32 -6 61 6 10 8
19 6 19 -7 0 -50 -83 -47 -90 4 -7 -197 -57 -302 -75 -48 -9 -150 -20 -225
-26 -141 -10 -356 -3 -347 11 3 5 -3 9 -12 9 -58 1 -262 41 -269 53 -3 4 -9 6
-14 3 -5 -3 -27 2 -50 11 -22 9 -43 14 -46 11 -3 -3 18 -13 46 -22 28 -9 50
-18 48 -20 -6 -7 -130 23 -141 34 -8 8 -6 11 6 11 14 0 16 6 11 28 -4 20 -3
23 5 13 8 -12 11 -9 15 15 4 16 11 49 17 74 27 110 39 193 44 295 2 61 7 142
11 181 l6 72 362 -4 c316 -2 376 0 481 16 66 10 136 19 155 18 35 0 35 0 -8
-10 -24 -5 -41 -12 -38 -15 3 -3 27 0 54 7 27 6 56 13 63 14 8 2 32 6 54 11
22 4 45 12 51 17 7 5 16 8 20 7 10 -2 27 4 89 29 22 10 45 16 51 14 7 -1 16 3
21 10 4 8 11 -38 15 -107 3 -66 11 -151 17 -190z m-1289 260 c10 -12 10 -15
-4 -15 -9 0 -16 7 -16 15 0 8 2 15 4 15 2 0 9 -7 16 -15z m494 -10 c3 -9 0
-15 -9 -15 -9 0 -12 6 -9 15 4 8 7 15 9 15 2 0 5 -7 9 -15z"/>
<path d="M3751 3974 c0 -11 3 -14 6 -6 3 7 2 16 -1 19 -3 4 -6 -2 -5 -13z"/>
<path d="M3727 3943 c-4 -3 -7 -13 -7 -22 1 -13 3 -13 11 2 11 19 8 33 -4 20z"/>
<path d="M3255 3880 c-27 -7 -28 -8 -5 -8 14 0 34 3 45 8 25 11 2 11 -40 0z"/>
<path d="M3130 3860 l-35 -7 40 -1 c22 0 51 4 65 8 24 8 24 8 -5 8 -16 0 -46
-4 -65 -8z"/>
<path d="M2985 3849 c-38 -5 -122 -7 -185 -4 -86 3 -101 1 -60 -5 105 -16 350
-8 350 11 0 10 -4 10 -105 -2z"/>
<path d="M3720 3415 c-7 -9 -8 -15 -2 -15 5 0 12 7 16 15 3 8 4 15 2 15 -2 0
-9 -7 -16 -15z"/>
<path d="M3789 3415 c14 -27 75 -95 62 -70 -5 11 -24 36 -41 55 -18 19 -27 26
-21 15z"/>
<path d="M3425 3210 c-27 -7 -27 -8 -5 -8 14 0 39 4 55 8 27 7 27 8 5 8 -14 0
-38 -4 -55 -8z"/>
<path d="M3333 3193 c9 -2 25 -2 35 0 9 3 1 5 -18 5 -19 0 -27 -2 -17 -5z"/>
<path d="M3273 3183 c9 -2 23 -2 30 0 6 3 -1 5 -18 5 -16 0 -22 -2 -12 -5z"/>
<path d="M3208 3173 c6 -2 18 -2 25 0 6 3 1 5 -13 5 -14 0 -19 -2 -12 -5z"/>
<path d="M2888 4893 c6 -2 18 -2 25 0 6 3 1 5 -13 5 -14 0 -19 -2 -12 -5z"/>
<path d="M2738 4863 c7 -3 16 -2 19 1 4 3 -2 6 -13 5 -11 0 -14 -3 -6 -6z"/>
<path d="M3010 4853 c0 -14 19 -38 25 -32 8 8 -5 39 -16 39 -5 0 -9 -3 -9 -7z"/>
<path d="M3781 4784 c0 -11 3 -14 6 -6 3 7 2 16 -1 19 -3 4 -6 -2 -5 -13z"/>
<path d="M3021 4734 c0 -11 3 -14 6 -6 3 7 2 16 -1 19 -3 4 -6 -2 -5 -13z"/>
<path d="M3751 4654 c0 -11 3 -14 6 -6 3 7 2 16 -1 19 -3 4 -6 -2 -5 -13z"/>
<path d="M3072 4605 c0 -16 2 -22 5 -12 2 9 2 23 0 30 -3 6 -5 -1 -5 -18z"/>
<path d="M3032 4555 c0 -16 2 -22 5 -12 2 9 2 23 0 30 -3 6 -5 -1 -5 -18z"/>
<path d="M4120 4547 c0 -8 6 -14 14 -14 8 0 12 6 9 14 -3 7 -9 13 -14 13 -5 0
-9 -6 -9 -13z"/>
<path d="M4160 4501 c0 -5 5 -13 10 -16 6 -3 10 -2 10 4 0 5 -4 13 -10 16 -5
3 -10 2 -10 -4z"/>
<path d="M4281 4414 c0 -11 3 -14 6 -6 3 7 2 16 -1 19 -3 4 -6 -2 -5 -13z"/>
<path d="M2666 4400 c3 -14 11 -32 16 -40 6 -10 7 -7 2 10 -3 14 -11 32 -16
40 -6 10 -7 7 -2 -10z"/>
<path d="M4245 4381 c3 -5 1 -12 -5 -16 -5 -3 -10 -12 -10 -18 0 -7 7 -3 15 7
18 23 19 36 4 36 -5 0 -8 -4 -4 -9z"/>
<path d="M2692 4335 c0 -5 6 -26 13 -45 7 -19 14 -28 14 -20 0 8 -6 29 -14 45
-7 17 -13 26 -13 20z"/>
<path d="M4205 4329 c-4 -6 -5 -12 -2 -15 2 -3 7 2 10 11 7 17 1 20 -8 4z"/>
<path d="M4170 4300 c-8 -5 -12 -12 -9 -15 4 -3 12 1 19 10 14 17 11 19 -10 5z"/>
<path d="M4125 4270 c-3 -6 1 -7 9 -4 18 7 21 14 7 14 -6 0 -13 -4 -16 -10z"/>
<path d="M4085 4251 c-3 -5 -1 -12 4 -15 5 -3 11 1 15 9 6 16 -9 21 -19 6z"/>
<path d="M2726 4230 c3 -14 10 -32 15 -40 7 -13 8 -13 8 0 0 8 -6 26 -15 40
l-15 25 7 -25z"/>
<path d="M3280 4185 c-7 -9 -8 -15 -2 -15 5 0 12 7 16 15 3 8 4 15 2 15 -2 0
-9 -7 -16 -15z"/>
<path d="M3701 4195 c0 -13 38 -59 44 -54 2 3 -7 18 -20 34 -13 17 -24 26 -24
20z"/>
<path d="M3290 4123 c0 -4 5 -15 10 -23 8 -13 10 -13 10 2 0 9 -4 20 -10 23
-5 3 -10 3 -10 -2z"/>
<path d="M2690 4045 c-7 -18 -14 -23 -27 -18 -15 5 -16 4 -7 -8 6 -8 13 -21
16 -29 2 -8 12 6 21 33 16 48 14 67 -3 22z"/>
<path d="M2830 4040 c0 -5 5 -10 11 -10 5 0 7 5 4 10 -3 6 -8 10 -11 10 -2 0
-4 -4 -4 -10z"/>
<path d="M2107 3829 c-4 -16 -3 -18 9 -8 7 6 11 15 8 20 -8 13 -11 11 -17 -12z"/>
<path d="M2060 3789 c0 -5 5 -7 10 -4 6 3 10 8 10 11 0 2 -4 4 -10 4 -5 0 -10
-5 -10 -11z"/>
<path d="M2031 3764 c0 -11 3 -14 6 -6 3 7 2 16 -1 19 -3 4 -6 -2 -5 -13z"/>
<path d="M1804 3000 c-162 -53 -309 -198 -379 -375 -15 -38 -29 -71 -30 -73
-7 -8 -100 47 -228 136 -166 113 -282 165 -372 166 -106 2 -165 -55 -165 -158
0 -42 2 -47 18 -41 102 43 119 47 182 42 72 -6 204 -50 284 -96 58 -32 185
-89 232 -102 31 -9 31 -11 36 -83 8 -125 57 -191 155 -209 43 -8 135 17 201
55 184 105 342 291 368 431 9 51 -12 120 -47 154 -21 21 -29 38 -29 65 0 27
-8 47 -28 69 -24 27 -37 33 -83 36 -35 2 -75 -4 -115 -17z m160 -32 c25 -41
-119 -252 -228 -335 -90 -68 -216 -122 -216 -92 0 18 59 123 113 199 133 190
288 297 331 228z m39 -210 c-39 -212 -229 -459 -384 -499 -97 -26 -132 12
-127 139 l3 77 55 8 c130 18 364 171 428 279 22 37 33 35 25 -4z"/>
<path d="M2970 2900 c-12 -12 -20 -26 -18 -32 15 -43 88 -28 88 17 0 14 -4 25
-9 25 -5 0 -16 3 -24 6 -9 3 -25 -4 -37 -16z"/>
<path d="M3257 2821 c5 -44 2 -60 -26 -115 -52 -105 -178 -206 -279 -222 -33
-5 -43 -2 -61 17 -11 12 -21 30 -21 38 0 18 29 68 83 144 43 61 52 112 22 133
-22 16 -65 19 -65 5 0 -33 -144 -231 -198 -273 -63 -49 -93 -24 -49 40 14 20
40 57 56 81 54 77 38 150 -32 151 -32 0 -94 -24 -119 -47 -17 -15 -20 -15 -41
5 -44 41 -133 21 -192 -42 -11 -12 -35 -40 -54 -61 l-34 -40 27 47 c31 56 33
81 6 108 -26 26 -48 25 -59 -2 -5 -13 -30 -54 -56 -93 -107 -159 -123 -239
-54 -275 34 -19 58 -2 91 63 41 82 82 143 131 195 35 35 67 54 67 38 0 -3 -22
-42 -50 -87 -53 -88 -62 -128 -34 -167 11 -16 25 -22 55 -22 38 0 39 1 39 36
0 19 12 61 28 92 49 102 202 237 202 178 0 -7 -21 -44 -46 -81 -62 -90 -77
-127 -66 -168 18 -71 93 -72 186 -2 l46 36 11 -24 c22 -48 123 -69 230 -48
198 39 435 248 391 345 -15 33 -52 57 -101 63 l-40 6 6 -52z"/>
<path d="M4743 2827 c-4 -7 -18 -40 -30 -75 -24 -69 -59 -130 -171 -302 -85
-129 -165 -220 -195 -220 -17 0 -19 5 -14 39 6 48 71 161 131 228 26 28 46 54
46 57 0 9 -51 7 -92 -5 -21 -5 -38 -15 -38 -20 0 -6 -14 1 -31 15 -36 30 -49
32 -113 10 -61 -21 -153 -110 -191 -183 -16 -32 -29 -78 -32 -111 -5 -51 -3
-59 18 -79 34 -32 94 -24 147 18 46 36 52 37 52 13 0 -29 29 -62 56 -62 29 0
94 31 113 54 18 22 31 20 31 -4 0 -36 35 -60 88 -60 52 0 109 26 163 74 25 22
34 26 37 15 9 -28 73 -78 107 -85 19 -3 70 -5 113 -3 107 5 209 55 302 148
108 109 140 214 84 280 -24 29 -94 58 -113 47 -5 -3 -5 -25 -1 -48 24 -129
-81 -304 -222 -371 -71 -34 -102 -34 -135 -1 -35 35 -27 73 38 174 62 97 74
155 40 189 -23 23 -61 28 -61 8 0 -19 -94 -180 -138 -236 -52 -67 -112 -111
-150 -111 -28 0 -32 4 -32 25 0 32 10 48 137 216 117 155 142 203 143 275 0
40 -5 55 -22 71 -31 27 -56 35 -65 20z m-417 -342 c8 -20 -43 -106 -111 -187
-41 -51 -62 -68 -80 -68 -32 0 -32 17 -1 78 35 66 96 143 135 169 40 27 50 28
57 8z"/>
<path d="M3641 2740 c-97 -21 -169 -52 -226 -98 -80 -64 -117 -118 -123 -181
-8 -84 10 -116 74 -135 20 -6 21 -3 21 46 0 75 38 144 110 204 86 70 152 97
251 102 132 7 192 -33 192 -128 0 -107 -121 -231 -249 -256 l-33 -7 55 69 c62
77 119 178 111 198 -7 19 -49 36 -89 36 -32 0 -35 -3 -35 -29 0 -64 -152 -289
-195 -290 -11 -1 -121 17 -244 39 -356 63 -476 70 -681 39 -148 -23 -222 -117
-146 -188 l22 -21 46 44 c92 87 230 114 495 96 168 -11 473 -46 482 -56 3 -2
-2 -17 -11 -32 -49 -83 -43 -155 17 -192 49 -30 68 -27 60 10 -8 39 16 122 53
181 25 39 35 46 62 47 93 2 233 58 300 118 101 91 107 228 13 316 -62 59 -220
91 -332 68z"/>
<path d="M4927 2662 c-37 -41 -10 -92 37 -71 34 16 46 57 21 76 -25 18 -39 16
-58 -5z"/>
<path d="M2263 2398 c-39 -10 -83 -60 -84 -96 -1 -15 -2 -35 -3 -44 0 -10 -21
-29 -46 -42 -56 -30 -83 -65 -82 -107 1 -51 31 -72 105 -77 50 -3 75 1 111 16
25 12 46 26 46 33 0 7 11 9 34 5 25 -5 39 -2 57 13 l24 20 -25 1 c-34 0 -46
10 -54 45 -10 39 -24 55 -47 55 -14 0 -19 -7 -19 -27 0 -25 0 -26 -20 -8 -30
27 -25 39 30 73 53 33 75 70 66 108 -7 28 -51 43 -93 32z m56 -32 c9 -11 10
-20 1 -35 -10 -20 -77 -71 -92 -71 -5 0 -8 16 -8 35 0 61 68 109 99 71z m-119
-174 c0 -5 14 -23 32 -41 38 -39 31 -59 -27 -79 -32 -11 -41 -10 -61 3 -33 21
-32 65 2 99 26 25 54 35 54 18z"/>
<path d="M1834 1831 c-9 -10 -4 -301 6 -301 6 0 10 23 10 50 l0 50 39 0 c36 0
43 -5 78 -50 50 -65 76 -66 28 -1 l-36 50 23 12 c61 31 77 106 34 156 -22 25
-32 28 -101 33 -42 3 -78 3 -81 1z m163 -43 c15 -14 23 -33 23 -52 -1 -57 -41
-86 -119 -86 l-51 0 0 80 0 80 62 0 c50 0 66 -4 85 -22z"/>
<path d="M2324 1831 c-9 -9 -4 -301 6 -301 6 0 10 23 10 50 l0 50 58 0 c69 0
100 14 125 58 17 29 18 39 8 73 -7 21 -22 45 -34 53 -20 13 -162 27 -173 17z
m166 -41 c13 -13 20 -33 20 -59 0 -58 -35 -83 -109 -79 l-56 3 -3 78 -3 77 66
0 c52 0 69 -4 85 -20z"/>
<path d="M3144 1831 c-10 -11 12 -21 47 -21 l39 0 0 -140 c0 -87 4 -140 10
-140 6 0 10 53 10 140 l0 140 39 0 c22 0 42 4 46 9 5 9 -182 21 -191 12z"/>
<path d="M2092 1678 l3 -153 88 0 c53 0 86 4 85 10 -2 6 -37 10 -78 11 l-75 0
-3 42 -3 42 70 0 c41 0 71 4 71 10 0 6 -30 10 -70 10 l-70 0 0 80 0 80 79 0
c44 0 83 5 86 10 4 6 -28 10 -90 10 l-96 0 3 -152z"/>
<path d="M2660 1812 c-39 -20 -80 -89 -80 -133 0 -14 10 -45 23 -69 57 -108
211 -108 268 0 71 132 -76 273 -211 202z m148 -22 c59 -36 78 -118 42 -177
-36 -60 -121 -81 -181 -46 -40 24 -72 92 -64 136 7 36 36 76 70 95 32 18 97
14 133 -8z"/>
<path d="M2957 1812 c-21 -24 -22 -66 -1 -87 9 -8 33 -24 53 -35 71 -36 86
-77 42 -120 -30 -30 -31 -30 -67 -15 -42 17 -59 11 -30 -11 58 -42 140 0 140
72 0 39 -10 50 -93 106 -64 43 -48 97 24 84 35 -7 49 6 19 18 -30 12 -71 6
-87 -12z"/>
<path d="M3382 1678 l3 -153 88 0 c53 0 86 4 85 10 -2 6 -37 10 -78 11 l-75 1
-3 42 -3 41 70 0 c95 0 102 18 9 22 l-73 3 0 79 0 79 77 -2 c45 -1 79 2 83 8
4 8 -25 11 -90 11 l-96 0 3 -152z"/>
<path d="M3614 1678 c5 -178 3 -161 16 -153 6 3 10 28 10 56 l0 49 40 0 c36 0
43 -5 77 -50 20 -27 43 -50 50 -50 8 0 -1 19 -21 47 l-33 46 38 37 c43 41 49
71 24 120 -22 42 -43 50 -130 50 l-76 0 5 -152z m171 107 c35 -35 33 -76 -6
-109 -25 -21 -41 -26 -85 -26 l-54 0 0 80 0 80 60 0 c51 0 65 -4 85 -25z"/>
<path d="M3880 1680 c0 -93 4 -150 10 -150 6 0 10 57 10 150 0 93 -4 150 -10
150 -6 0 -10 -57 -10 -150z"/>
<path d="M4007 1684 c-32 -79 -56 -150 -54 -157 3 -6 12 5 21 26 l16 37 79 0
c79 0 79 0 90 -30 5 -16 15 -30 20 -30 6 0 11 3 11 6 0 9 -111 279 -118 286
-4 4 -33 -58 -65 -138z m96 14 c15 -40 27 -76 27 -80 0 -5 -27 -8 -60 -8 -33
0 -60 3 -60 8 0 13 54 152 60 152 3 0 18 -33 33 -72z"/>
<path d="M1065 1763 c-103 -67 -115 -76 -115 -83 0 -12 150 -102 162 -98 7 3
-13 21 -45 41 -31 20 -57 39 -57 42 0 3 126 5 280 5 l279 0 27 -45 c14 -25 30
-45 35 -45 14 0 11 9 -12 47 -21 34 -21 51 0 38 6 -3 20 -24 31 -46 11 -21 25
-39 30 -39 15 0 12 12 -10 45 -22 34 -25 45 -10 45 6 0 23 -20 38 -45 15 -25
30 -45 34 -45 13 0 9 13 -13 49 -16 27 -18 36 -7 42 11 8 11 10 0 18 -11 6 -9
15 7 42 23 38 26 49 11 49 -5 0 -21 -20 -36 -45 -14 -25 -30 -45 -35 -45 -13
0 -11 9 12 46 11 19 19 40 16 47 -2 6 -19 -12 -37 -40 -18 -29 -37 -53 -41
-53 -13 0 -11 10 12 46 11 19 19 40 17 46 -3 7 -17 -7 -33 -32 -15 -25 -33
-48 -39 -52 -15 -10 -544 -10 -550 0 -3 5 17 21 45 37 27 16 49 35 49 42 0 16
3 17 -45 -14z"/>
<path d="M4260 1779 c0 -7 10 -27 21 -46 18 -29 20 -37 8 -44 -12 -7 -12 -11
-1 -18 11 -6 9 -15 -7 -42 -22 -36 -26 -49 -13 -49 4 0 19 20 34 45 15 25 32
45 38 45 14 0 13 -5 -10 -42 -22 -36 -25 -48 -11 -48 5 0 21 20 35 45 15 25
31 45 36 45 14 0 13 -5 -10 -42 -22 -37 -25 -48 -10 -48 5 0 21 20 36 45 l26
45 280 0 c181 0 277 -3 273 -10 -3 -5 -26 -21 -51 -36 -38 -23 -57 -44 -38
-44 11 0 154 93 154 100 0 4 -19 20 -42 35 -24 16 -54 36 -68 45 -46 30 -50
32 -50 18 0 -8 23 -27 50 -43 28 -16 50 -32 50 -36 0 -4 -125 -7 -278 -8
l-279 -2 -32 52 c-37 60 -52 60 -22 0 24 -45 25 -51 12 -51 -5 0 -24 24 -42
53 -18 28 -34 46 -36 40 -3 -7 5 -28 16 -47 23 -37 25 -46 12 -46 -5 0 -23 23
-40 50 -31 50 -41 60 -41 39z"/>
</g>
</svg>
